<svg enable-background="new 0 0 1482.9 1607.4" viewBox="0 0 1482.9 1607.4" xmlns="http://www.w3.org/2000/svg"><path d="m177.4 397.4s-12 3-14.9 5.8c-3.1 3-6.6 15.7-6.6 15.7s-4.1-11.6-6.9-14.4c-2.6-2.6-14.6-7.2-14.6-7.2s11.8-5.3 14.6-8.1c2.6-2.6 6.9-13.5 6.9-13.5s4.4 11 7.4 13.9c2.3 2.7 14.1 7.8 14.1 7.8z" fill="#fff"/><path d="m0 0h1482.9v1607.4h-1482.9z" fill="#214056"/><path d="m870.8 455.5h-274.4c-6.6 0-12-5.4-12-12v-274.4c0-6.6 5.4-12 12-12h274.4c6.6 0 12 5.4 12 12v274.4c0 6.6-5.4 12-12 12z" fill="#c9c9c9"/><path d="m852.1 434h-237.6c-6.6 0-12-5.4-12-12v-199.7c0-6.6 5.4-12 12-12h237.6c6.6 0 12 5.4 12 12v199.7c0 6.6-5.4 12-12 12z" fill="none" stroke="#4c6677" stroke-miterlimit="10" stroke-width="4"/><path d="m624 479.3h-14.8l-6.7-23.8h29.5z" fill="#4c6677"/><path d="m856 479.3h-14.7l-6.8-23.8h29.6z" fill="#4c6677"/><path d="m803.6 196.7h-98.1c-6.6 0-12-5.4-12-12v-4.7c0-6.6 5.4-12 12-12h98.1c6.6 0 12 5.4 12 12v4.7c0 6.6-5.4 12-12 12z" fill="#eee"/><circle cx="666.2" cy="182.4" fill="#eee" r="14.5"/><circle cx="623.4" cy="182.4" fill="#eee" r="14.5"/><circle cx="846.3" cy="182.4" fill="#eee" r="14.5"/><path d="m771.9 189.1 13.5-13.5" fill="none" stroke="#808080" stroke-linecap="round" stroke-miterlimit="10" stroke-width="4"/><path d="m788.9 189.1 13.4-13.4" fill="none" stroke="#808080" stroke-linecap="round" stroke-miterlimit="10" stroke-width="4"/><path d="m843.4 185.4 11.7-11.8" fill="none" stroke="#808080" stroke-linecap="round" stroke-miterlimit="10" stroke-width="4"/><path d="m704.5 175.4h55.5" fill="none" stroke="#808080" stroke-linecap="round" stroke-miterlimit="10" stroke-width="3"/><path d="m704.5 182.4h55.5" fill="none" stroke="#808080" stroke-linecap="round" stroke-miterlimit="10" stroke-width="3"/><path d="m704.5 189.3h55.5" fill="none" stroke="#808080" stroke-linecap="round" stroke-miterlimit="10" stroke-width="3"/><circle cx="666.2" cy="182.4" fill="#c9c9c9" r="7"/><circle cx="846.4" cy="182.4" fill="#c9c9c9" r="7"/><circle cx="623.4" cy="182.4" fill="#71efc2" r="7"/><path d="m437.3 1479.5h-274.4c-6.6 0-12-5.4-12-12v-274.4c0-6.6 5.4-12 12-12h274.4c6.6 0 12 5.4 12 12v274.4c0 6.6-5.4 12-12 12z" fill="#c9c9c9"/><path d="m418.6 1458h-237.6c-6.6 0-12-5.4-12-12v-199.8c0-6.6 5.4-12 12-12h237.6c6.6 0 12 5.4 12 12v199.8c0 6.6-5.4 12-12 12z" fill="none" stroke="#4c6677" stroke-miterlimit="10" stroke-width="4"/><path d="m190.5 1503.3h-14.8l-6.7-23.8h29.5z" fill="#4c6677"/><path d="m422.6 1503.3h-14.8l-6.8-23.8h29.6z" fill="#4c6677"/><path d="m370.1 1220.7h-98.1c-6.6 0-12-5.4-12-12v-4.7c0-6.6 5.4-12 12-12h98.1c6.6 0 12 5.4 12 12v4.7c0 6.6-5.4 12-12 12z" fill="#eee"/><circle cx="232.7" cy="1206.4" fill="#eee" r="14.5"/><circle cx="189.9" cy="1206.4" fill="#eee" r="14.5"/><circle cx="412.8" cy="1206.4" fill="#eee" r="14.5"/><path d="m338.4 1213.1 13.5-13.5" fill="none" stroke="#808080" stroke-linecap="round" stroke-miterlimit="10" stroke-width="4"/><path d="m355.4 1213.1 13.4-13.4" fill="none" stroke="#808080" stroke-linecap="round" stroke-miterlimit="10" stroke-width="4"/><path d="m409.9 1209.4 11.7-11.8" fill="none" stroke="#808080" stroke-linecap="round" stroke-miterlimit="10" stroke-width="4"/><path d="m271 1199.4h55.5" fill="none" stroke="#808080" stroke-linecap="round" stroke-miterlimit="10" stroke-width="3"/><path d="m271 1206.4h55.5" fill="none" stroke="#808080" stroke-linecap="round" stroke-miterlimit="10" stroke-width="3"/><path d="m271 1213.3h55.5" fill="none" stroke="#808080" stroke-linecap="round" stroke-miterlimit="10" stroke-width="3"/><circle cx="232.7" cy="1206.4" fill="#c9c9c9" r="7"/><circle cx="412.9" cy="1206.4" fill="#c9c9c9" r="7"/><circle cx="189.9" cy="1206.4" fill="#71efc2" r="7"/><path d="m437.6 923h-274.3c-6.6 0-12-5.4-12-12v-274.4c0-6.6 5.4-12 12-12h274.4c6.6 0 12 5.4 12 12v274.4c-.1 6.6-5.5 12-12.1 12z" fill="#c9c9c9"/><path d="m418.9 901.5h-237.6c-6.6 0-12-5.4-12-12v-202.4c0-6.6 5.4-12 12-12h237.6c6.6 0 12 5.4 12 12v202.4c0 6.6-5.4 12-12 12z" fill="#151c3a"/><path d="m190.9 946.8h-14.8l-6.8-23.8h29.6z" fill="#4c6677"/><path d="m422.9 946.8h-14.8l-6.8-23.8h29.6z" fill="#4c6677"/><path d="m462.3 1006.4h-320.8c-6.6 0-12-5.4-12-12l39.8-80.8c0-6.6 5.4-12 12-12h237.6c6.6 0 12 5.4 12 12l43.4 80.8c0 6.6-5.4 12-12 12z" fill="#c9c9c9"/><path d="m164.3 921.2 12.7-22.6" fill="none" stroke="#151d39" stroke-linecap="round" stroke-miterlimit="10" stroke-width="3"/><path d="m437.3 921.2-12.7-22.6" fill="none" stroke="#151d39" stroke-linecap="round" stroke-miterlimit="10" stroke-width="3"/><g opacity=".46"><circle cx="248.3" cy="832.8" fill="#fff" r="47.1"/><circle cx="248.3" cy="832.8" fill="none" opacity=".43" r="37" stroke="#c9c9c9" stroke-miterlimit="10" stroke-width="3"/></g><g opacity=".46"><circle cx="352.5" cy="832.8" fill="#fff" r="47.1"/><circle cx="352.5" cy="832.8" fill="none" opacity=".43" r="37" stroke="#c9c9c9" stroke-miterlimit="10" stroke-width="3"/></g><circle cx="227" cy="832.8" fill="#fff" r="47.1"/><circle cx="227" cy="832.8" fill="none" opacity=".43" r="37" stroke="#c9c9c9" stroke-miterlimit="10" stroke-width="3"/><circle cx="371" cy="832.8" fill="#fff" r="47.1"/><circle cx="371" cy="832.8" fill="none" opacity=".43" r="37" stroke="#c9c9c9" stroke-miterlimit="10" stroke-width="3"/><path d="m266.8 738.6c0-10.9-8.9-19.8-19.8-19.8-1.1 0-2.1.1-3.2.3-2.1-4.7-5-8.8-9-11.4l-24.6.2c-14.4 10.2-14.4 38.4-14.4 50.5h51.2l2.6-.2c9.7-1.3 17.2-9.6 17.2-19.6zm-17.3 12.3c-.2-7.3-.8-16.5-3.2-24.9h.7c6.9 0 12.6 5.6 12.6 12.6 0 6.1-4.3 11.1-10.1 12.3z" fill="#fff"/><path d="m345.6 738.6c0-10.9-8.9-19.8-19.8-19.8-1.1 0-2.1.1-3.2.3-2.1-4.7-5-8.8-9-11.4l-24.6.2c-14.4 10.2-14.4 38.4-14.4 50.5h51.1l2.6-.2c9.8-1.3 17.3-9.6 17.3-19.6zm-17.2 12.3c-.2-7.3-.8-16.5-3.2-24.9h.7c6.9 0 12.6 5.6 12.6 12.6-.1 6.1-4.4 11.1-10.1 12.3z" fill="#fff"/><path d="m358.5 699.7h29.9l3.7 33.5 1.6 3.5 3.1 21.1h-47.5l3.4-21.1 1.4-3.5z" fill="#fff"/><path d="m382.7 730.3-3.3-25.5" style="opacity:.5;fill:none;stroke:#c9c9c9;stroke-width:3;stroke-linecap:round;stroke-miterlimit:10"/><path d="m362 730.3 3.4-25.5" style="opacity:.5;fill:none;stroke:#c9c9c9;stroke-width:3;stroke-linecap:round;stroke-miterlimit:10"/><path d="m372.5 730.4v-25.7" style="opacity:.5;fill:none;stroke:#c9c9c9;stroke-width:3;stroke-linecap:round;stroke-miterlimit:10"/><path d="m402.1 857c-3-.2-2.5-2.2-3.7-3.1l1.3-.8c1.9.2 5 .5 4.8 1.8-.2.3-1.2 2-2.4 2.1z" fill="#71efc3"/><path d="m403.8 850.8c-.2.1-.3-.1-.6 0l.3-1.6z" fill="#71efc3"/><path d="m396.4 854.9-1.3.4c-.3-.1.4-.5.3-.7l-1.6-.4c2.2.3 1.9-1.1 2.6.7z" fill="#71efc3"/><path d="m378.9 849c-1-.8.6-1.5 1-2.2.8.1 1.5.9.9 1.6-1.1 0-1.4.5-1.9.6z" fill="#71efc3"/><path d="m388.9 856.7c.3-1.5 3.3-1.1 2.8-2.4-.2-.6-.4-1.1-.8-1.4l-1.3 1c-3.6-.1 1.2-2-1.3-3-.5.1-.7.2-.9.4-1 .9-.7 1.2.1 1.8-3.3.6-2.5-3.5-4.2-3.3-2.4.7-.7 3-1.2 3.9-.1-1.6-2.1-2.8-4.5-3.5l2.1 2.2c.5-1 1-2 1.4-3 0-.8.3-1.6.6-2.4.4-.9 1.1-2 1.6-3 .6-1.1 1.1-2.3 1.3-3.5s.2-2.4-.2-3.5c.1-1.1.2-2.4 0-3.7s-.7-2.7-1.6-3.9l.3-.3c-.1 0-.2.1-.3.1-.1-1.4-1.7-2.4-3.3-2.8-1.5-.5-2.9-.6-2.6-1.9l-.7.2c-1.4 0-1.4-.2-1.1-.5s.8-.8-.1-1.1c-1.6.3-3.2-.1-4.8-.2-.8 0-1.6 0-2.3.2-.3.1-.6.2-.9.4-.2.2-.3.4-.4.7-.2-.1 0-.3-.2-.4-.5.2-1 .4-1.5.6 0 .6-.2 1.3.1 1.8-.4 0-.6.7-1.1.6-1.3.2-.3-1.1-.9-1.5-3.2 1.1-6.9 2-10.2 1.5-.4-1.9-3.9-.9-5.4-.4-3.5-1-5.9 3.6-8.6 2.6 1-1.6 3.7-.9 3.6-2.3l-.8-.4c-1.5 0-4-.3-4.4 1.3 1 .5 1.2 1.2 1.7 1.7-.5.5-.5 1.1-1.2 1.5-1.1.5-2.4.6-2.7-.3.5-.5 1.3-.4 1.8-.6-.1-1.1-2.1-.6-2.9-.7 1.9 2.1-.8 4 2.8 4.6l-1.5 1c-.6 2.5 6.1.4 3.9 3.7-.1.7.5 1.3-.3 2.2.8.7 1.8.2 2.1-.4 1.2 1.5 4.1-1 4.9 1.3 2.2-2.6 4.4.4 6.9.2 3.3-.2.8-1.6 1.4-3.1 1.8.4 3.1-1.1 4-1.9.9-.2 1.6.6 1.1 1.1 1.7.2 3.5.4 5.2.5.9 0 1.7.1 2.5.1h1.3c.4 0 1 0 .9.1.5.2.9.3 1.2.4s.7.2.9.4c-.5.9-.3.9-.2 1.1.1.1-.1.6-1.7 1.1.2-.1.4-.1.5-.2.3-.1.5-.1.6-.1.6-.2 1.2-.5 1.8-.8-.2.3-.4.5-.4.7 1.1-.1 1 .3.9.6s-.2.6.6 1.1c-.2.2-.3.4-.5.5-.2.3-.5.6-.7.9-.4.5-.7.8-1.1 1.2-.3.3-.7.7-1.1 1.4s-.9 1.7-1.4 3.6c0 .5.1 1.1.1 1.7l1 11.8 8.2-2.5c2.4-.7 5-1.6 7.7-1.7 1.1 0 2.2.7 2.1 1.2 1.3-.3 3.3-.6 4.7-.8 2.8-1.4 2.4-2.3 1.2-2.7-1.3-.8-3.5-.9-4.6-.8z" fill="#71efc3"/><path d="m356 823.5c0-1.1-1.5-1.3-2.1-1.7l-.6.5c-1.5.7-1.3 2-.2 2.4.3-.9 2-1.2 2.9-1.2z" fill="#71efc3"/><path d="m370.5 820.6-.4 1.2c1.1-.2 2.2-.4 3.4-.6 0-.7-1.7-.6-3-.6z" fill="#71efc3"/><path d="m330.9 838.3c1.8-.4 2.8.4 4.5-.6l-1-1.8c-2.1-.3-4.4-.9-6.5-.1-.7 2.5 3 .5 3 2.5z" fill="#71efc3"/><path d="m335.8 840.6c-2.4 2.8-7 1.3-8.4 5.2 1.2 2.1 2.4 1.5 3.7.6 1.2-1 2.5-2.3 3.7-2 1.1-.9 1.7-1.7 3.2-2.7.8-1.3-1.4-1.2-2.2-1.1z" fill="#71efc3"/><path d="m325.7 844c-.3.1-.6.5-.8.6-.1.5.7.6 1.1.7.3 0 .8-1.3-.3-1.3z" fill="#71efc3"/><path d="m388.8 820.5c-.8-.7-1-2.5-1.4-3.6l.2-.5c.4.5 1.3 1.4 1.5 2.6 0 .2.1 1.6-.3 1.5z" fill="#71efc3"/><path d="m388.1 814.9s-.1-.1-.1-.1l-.3-1.5z" fill="#71efc3"/><path d="m387.2 817.6-.2.2c-.1-.2 0-.5 0-.7l-.4-.6c.4.5.2-.9.6 1.1z" fill="#71efc3"/><path d="m384.3 809.8c0-.9.1-1.5.2-2.1 0 .1.1 1 0 1.7-.1-.2-.2.3-.2.4z" fill="#71efc3"/><path d="m385.7 818.2c0-1.5.6-.6.4-2-.1-.6-.2-1.2-.3-1.5l-.2.8c-.6-.5.1-1.8-.4-3.1-.1.1-.1.1-.1.3-.1.8-.1 1.1.1 1.8-.5.2-.4-3.7-.6-3.7-.3.5-.1 2.9-.2 3.8 0-1.2-.1-2.3-.3-3.1s-.3-1.3-.5-1.4c-.2.5-.4.1-.5-.2s-.3-.5-.7.1c-.1-.4-.2-.9-.3-1.2l.1-.4c0 .1-.1.2-.1.3.5-1.7-.8.6.2-2l-.1.2c-.2.1.4-.9.5-1.5-.3.3.6-1.8-.5.2.1-.1.1-.2.2-.4l-.3.3c-.3.5-.6 1.1-.9 1.6 0 0-.4.5-.3.3-.1-.1.6-1 .8-1.4-.5.5-.9.4-.3-.7 1.2-1.6.9-1.4.8-1.4.5-.7.2-.4-.2 0-.4.3-.8.6-.2 0 .9-.8 0 .2 1-.8l.4-.5c.3-.3 1-1-.1 0-.6.6-1.1 1.1-1.5 1.5-.3.2-.7.6-.9.7s0-.2.7-.8c.3-.2 0 0 .1 0 .8-.7.8-.8 1.1-1.1-1.9 1.7-2.9 2.2-3.9 3.5l-.5.2c-.9.7-1.2 1.1-1.6 1.6-.3.5-.7 1-1.7 1.7-.5.4-1 1-1.6 1.2-.6.7-.3.7.1.5-1.2 1.3.4.7-1.2 2.5.9-.5.8-.1.5.6s-.7 1.5-.6 1.9c.3.9 1.1-1 2.1-1.9-.2.8.8 0 1.3-.4.2.1-.2.9-.5 1.1 0 2.6 1.3 4 2.7 4.7.1.9.4.8.7.9s.6.3.6 1.8v-.5c.1-.3.2-.4.3-.5 0-.5 0-1.1.1-1.6.1.3.3.5.5.5.6-1.8 1.1.3 1.7-1.6.9.8.4 1.6 1.4 2.5.7-.7 1.4-1.6 2-1.4.2.1.5.9.5 1.4.3-.2.8-.2 1.1-.2.6-1 .4-1.9.1-2.5-.3-.2-.8-.6-1-.7z" fill="#71efc3"/><path d="m383.2 803.6c.6-.9.9-1.3 1.1-1.7l-.2.3c-.2.3-1 1.3-1.4 1.9.6-.7.6-.7.5-.5z" fill="#71efc3"/><path d="m383.9 803.1-.5 1 .2-.3c.3-.6.2-.6.3-.7z" fill="#71efc3"/><path d="m376.5 807.7c0 .3-.8 1-.4 1l1.5-1.3c.6-.7 1.6-1.7 1.4-1.8-1.7 1.1-.9 1.1-2.5 2.1z" fill="#71efc3"/><path d="m373.9 810.5c-.9.4-.9 0-1-.4-.1-.3-.2-.5-1.7.1-2 1.3-1.7 1.6-1.2 1.6.6 0 1.5-.2 1 .4.6-.1 1.1-.3 1.7-.4 1-.5 1.1-1.1 1.2-1.3z" fill="#71efc3"/><path d="m373.1 808.9c0-.1-.2 0-.4 0-.4.2-.6.4-.8.7 0 0 .9-.4 1.2-.7z" fill="#71efc3"/><path d="m348.5 816.6c.8-.4 2.4-1.1 3.5-1.5l.5-.1c-.5.3-1.5.8-2.6 1.2-.2.1-1.6.6-1.4.4z" fill="#71efc3"/><path d="m353.7 814.7s.2-.1.1-.1l1.4-.5z" fill="#71efc3"/><path d="m351.4 815.3h-.2c.1-.1.4-.2.6-.2l.6-.3c-.5.2.8-.3-1 .5z" fill="#71efc3"/><path d="m358.6 811.6c.8-.4 1.4-.5 2-.8-.1.1-.9.4-1.6.7.1 0-.4.1-.4.1z" fill="#71efc3"/><path d="m350.8 815.2c1.4-.5.6-.1 1.9-.6.5-.2 1.1-.4 1.4-.6l-.7.2c.5-.3 1.7-.6 2.9-1.2-.1 0-.1 0-.3.1-.7.2-1 .4-1.7.7-.2 0 3.5-1.5 3.4-1.6-.5.1-2.7 1.1-3.6 1.4 2.2-.9 3.9-1.8 4-2-1 .3 1.1-.8-.3-.4.3-.2.7-.5.9-.6.1 0 .2-.1.3-.1-.1 0-.2.1-.3.1 1.6-.7-.8.1 1.7-1l-.2.1c-.2 0 .9-.4 1.4-.6-.4.1 1.7-.9-.4-.1.1-.1.3-.1.4-.2l-.4.1c-.5.2-1.1.4-1.7.7 0 0-.6.2-.4.1 0 0 1.1-.4 1.5-.6-.6.1-.8 0 .2-.5 1.8-.7 1.5-.8 1.4-.8 1.6-.8-1.9.5-.4-.2 1.2-.4-.1.2 1.2-.3l.6-.3c.4-.2 1.2-.7-.1-.1-.7.3-1.4.6-1.9.8-.3.1-.9.3-1.1.4-.2 0 .1-.1 1-.5.3-.1 0 0 .1 0 1-.4 1.1-.5 1.4-.7-2.3 1-3.4 1.3-4.8 2l-.5.1c-2.1.8-1.9 1-4.3 1.9-.6.2-1.3.5-1.9.7-.8.4-.7.3-.2.2-1.6.7-.1.2-2.4 1.2 1.8-.6-1.3.7-1.7 1s1.3-.5 2.6-.9c-.7.3.5 0 1.1-.2 0 0-.8.4-1.1.5-1.9 1.1-2.4 1.6-2.5 1.9-1.4.7.7 0-1.9 1.1l.4-.2c.3-.1.4-.1.5-.2.5-.2 1-.4 1.4-.6-.2.1-.3.2-.3.2 1.8-.7 0 .2 1.9-.5-.5.4-1.3.7-2.1 1.1.7-.2 1.6-.4 1.4-.2-.1.1-.9.4-1.3.6.2 0 .2.1.2.1 1.8-.5 3.2-1.4 3.3-1.5z" fill="#71efc3"/><path d="m363.1 807.7c1-.4 1.4-.6 1.9-.8l-.3.1c-.4.1-1.6.6-2.2.9.8-.3.8-.3.6-.2z" fill="#71efc3"/><path d="m364 807.9-1 .4.4-.1c.6-.2.5-.2.6-.3z" fill="#71efc3"/><path d="m355.5 809.6c-.2.1-1.1.6-.8.5l1.9-.8c.8-.4 2-1 2-1.1-2 .8-1.3.7-3.1 1.4z" fill="#71efc3"/><path d="m352.2 811.1c-1.8.6.9-.7-2 .4-4.4 1.8.3.1-1.1.8.5-.2 1-.3 1.5-.4.9-.4 1.4-.6 1.6-.8z" fill="#71efc3"/><path d="m352.2 810.6s-.2 0-.3.1c-.4.1-.7.3-1 .4 0 .1 1-.3 1.3-.5z" fill="#71efc3"/><path d="m225.7 812.6c-.3.6-1.4 1-1.9.1l-.5-.4c.6-.2 2.3-1.5 2.4.3z" fill="#fec64e"/><path d="m228.4 815.7c-.6.1-.5-.4-.6-.7l.6-.4c.5.3.2.8 0 1.1z" fill="#fff"/><path d="m233.7 822.7h.3c-.3 0-.6.1-.8.2-.3-.3-.3-1 .2-1 .1.3-.2.5.3.8z" fill="#fec64e"/><path d="m219.6 822.3c.8 1.1 2.7 2.2 4.2 2.6l1.3 1.9c-1.2-.4-1.8.9-2.5 1.6 0 .6 1.2-.1.8 1-.3-.2-.6-.7-.9-.7-.3 1.1 1.3 2.1-.5 3l-1.2-.4c-1.2 1.2-2.1 2.7-3.1 4.1s-2 2.7-3.5 3.4c.4 1.2-1 2.1-1.1 3.3l-.5-.5c.4 1.2-1.3.9-1.6 1.5h-.9c-1-.6.8-1.7-.8-2.4-1.6.3-.4 2.8-2.1 2.8-1 .6-.3 1.1-.5 1.8.4.6.6.3 1.2.9-1.3 2.2-4.1-.2-5.4 1.7.4.4.3 2.7 2 2.1v-1.1l.9.1c-.4.5-1.2 1.3-.5 1.7-2.5-1.1-.9 4.7-2.7.9 1.2-.4 1.3-.7.9-1.9-1.7 1.6-3.9 2.5-5.1 4l.5 1.2c-.9-.7-2.1-.5-2.9.1-.1.5-.5.8.1 1.1.4.6 2.5-2.3 3 .2-1.7 1.3-3.9 2.5-6.1 2.5.4-1 1.1-1.3.6-3.1 1.1-3.8 4.6-6.1 5.5-10 .7.4 1.5-.1 1.9.7.6.1.8-1 1.8-.4 1-2.8 3.7-4.7 5.4-6.4-1.9-.9.1-2 0-3.1 1.1.2 1.6-.9 2.2-1.5-.2-.3.1-.8-.4-1.1-.2.6-.7.5-1.3.8-.9-1.2 1-.9 1.7-1.5l.2.9c1.2-1.1 4.2-.5 4.2-2.5l-1.8-.2c.8-1.7 3.7-1.7 3.4-3.9-1.2.4-1.8 2.6-3.2 1.1-.7-.8.4-1.7 1.1-1.8 3.2-.5 2-5 5.7-4.5z" fill="#fec64e"/><path d="m214.5 822.3c-1.7 1.6 1 2.8-.8 4.2-.5-.9-1.9-.8-2.5-.4-.1.9-1 1.2-1.5 1.7-.5.1-1.3-.8-.7-1.4 3 0 2.6-4.2 5.5-4.1z" fill="#fec64e"/><path d="m219.8 825.2c-.7.9-2-1.2-2.4 0-.5-1.3.4-.4 1.2-1.2v.9z" fill="#fff"/><path d="m210.8 829.2c-.4.6-2.1 1.4-3.1.4-.2 0-.5-.6-.6-.2.8-.1 2.2-1.3 3.7-.2z" fill="#fec64e"/><path d="m216.9 830.9c-.1.5-.4.7-.8 1.2.1-.5 0-1.2.8-1.2z" fill="#fff"/><path d="m211.9 831.7c.8.6-.3.6-.4.8h-.6c.1-.5.4-1 1-.8z" fill="#fec64e"/><path d="m205.3 834c-1 .5-.2-1.7-1.2-.9l.4-.6 1.3.9z" fill="#fec64e"/><path d="m203.1 834.1c0 .5-.1.8-.7.9l-.2-.6c0-.2.7.1.9-.3z" fill="#fec64e"/><path d="m206.7 835.7c-.1.6-.6 0-1.1 0-.2-.5 1.4-.5 1.1 0z" fill="#fec64e"/><path d="m210.2 845.9c-.6-1.2.6-1.4.9-2.3-.3.9-.1 1.7-.9 2.3z" fill="#fec64e"/><path d="m231.1 807c.6.1.8-.5.8-1l-.5-.2z" fill="#fec64e"/><path d="m225.6 810.4c.6 1.5.8.4 2.1.7 1.1-.5 1.3-2.2 2.3-2.9l.1-1.1c-1.4.5-3.6 1.7-4.5 3.3z" fill="#fec64e"/><path d="m229.6 816.8c1.1 0 1.3-1.6 1.7-2-.9.5-2 1.3-2.6 1.7.2.4.6.3.9.3z" fill="#fff"/><path d="m239.7 799.6c-1.2.9-3.6 1.2-3.8 3.7.8-.2 1.1.2 2.2-.3.4 2.1-1.6.8-2.4 1.5.9-.2.5 1.2 0 1.7-1.4.4-3.1 1.9-4.5 3.1-.2 1.1-3 1.8-1.5 3.1-.8.8-1.8-.2-2.8 0-.5 3.3-6.2-.3-6.6 3.6-.6-1-1.5.1-2 .3-.9.7-3.1 2.5-1.2 3.7 1.6.6 1.2-2.3 3.1-2 3.1.4-1.1 2.1.2 3.6 0-.5 1.2.7 1.5-.4-.9 1.9 2 1.1 2 2.6 2.4-.6 2.3-.4 4.7.7.7-1.1-.6-2.2-.9-3.2.5-1.6 2.7-.6 3.3-1.8 1.2 2.9 3 .5 4.1-.4 1.5-1-1.2-2.5.5-3.5 1.6.5-.4 2.7 1.6 3.1l.3-1c-.3-1.3-.8-2.7-.8-3.8.3-.3.8-.7 1.1-.3-.3.9.5 1.6 1.6 1.6 0-.6 0-.8-.1-1.2-3.3-1.6 1.3-1.2 1.1-3.4 1.2-4.2 3.7 2 5.5-1-2.5-1.7.9-2.5 1.2-4 .8-.5 1.5 0 2.6.4 0-.4.5-.9.3-1.4-2.5-2.8-6.3-4.6-10.5-5.5.2.3.2.4.2.5z" fill="#fec64e"/><path d="m231.6 814.3c.1.3-.4.5-1.2.1l-.5-.2c.1-.1.5-.9 1.7.1z" fill="#fec64e"/><path d="m235.4 815.9c-.4.1-.5-.2-.8-.3l.2-.2c.4 0 .6.3.6.5z" fill="#fff"/><path d="m243.4 819.4h.2c-.2 0-.4.1-.4.1-.4-.2-.8-.5-.5-.6.3.2.3.4.7.5z" fill="#fec64e"/><path d="m233.1 819.5c1.3.6 3.2 1.1 4.6 1.2l2.1 1c-1.1-.2-.7.5-.8.9.4.3.8-.1 1.2.5-.3-.1-.9-.3-1.1-.3.4.5 2.2 1 1.5 1.5l-1.1-.2c-.4 1.2.9 3.1-.6 3.8 1 .6.5 1.1 1 1.6l-.6-.2c1 .6-.5.5-.4.8h-.7c-1.1-.3-.3-.8-1.9-1.2-1.1.2 1.2 1.3-.1 1.4-.4.3.3.5.6.9.6.3.7.1 1.4.4.1 1-3.3-.1-3.3.9.5.2 1.7 1.3 2.7 1l-.6-.5h.8c0 .2-.2.6.5.8-2.6-.5 1.9 2.3-1.7.4.7-.2.6-.3-.3-.9-.5.8-1.7 1.2-2 1.9l1 .6c-1.1-.3-1.9-.2-2.3.1.2.2 0 .4.6.5.6.3.8-1.1 2.5.1-.7.6-1.9 1.2-3.7 1.2-.1-.4.2-.6-1.1-1.5-1.1-1.8.5-2.9-.8-4.8.8.2 1.2-.1 1.9.3.6.1.1-.5 1.2-.2-.8-1.4.3-2.3.7-3.2-2-.4-1.1-1-1.7-1.5.9.1.7-.5.8-.8-.3-.2-.4-.4-.9-.5.2.3-.3.2-.6.4-1.4-.6.2-.5.4-.8l.7.5c.3-.5 2.9-.3 1.7-1.3l-1.5-.1c-.4-.9 1.8-.9.3-2-.6.2.1 1.3-1.7.6-1-.4-.7-.9-.2-.9 2.1-.3-1.5-2.6 1.5-2.4z" fill="#fec64e"/><path d="m229.4 819.6c-.2.9 2.4 1.4 1.9 2.1-.9-.5-1.9-.4-2.1-.1.5.5 0 .6-.1.9-.3.1-1.4-.4-1.3-.7 2.3 0-.5-2.2 1.6-2.2z" fill="#fec64e"/><path d="m235.1 821c0 .5-2.2-.6-1.8.1-1.1-.6.1-.2.2-.6l.6.5z" fill="#fff"/><path d="m230.7 823.2c0 .3-.8.7-2.1.3-.1 0-.7-.3-.6-.1.6-.1 1-.8 2.7-.2z" fill="#fec64e"/><path d="m236.3 823.9c.2.2.1.4.1.6-.2-.2-.7-.6-.1-.6z" fill="#fff"/><path d="m233 824.4c1 .3.2.3.1.4h-.5c-.1-.2-.2-.5.4-.4z" fill="#fec64e"/><path d="m229.3 825.6c-.5.3-1.1-.8-1.4-.4v-.3l1.5.4z" fill="#fec64e"/><path d="m227.8 825.8c.3.2.4.4 0 .5l-.5-.3c-.2-.2.5-.1.5-.2z" fill="#fec64e"/><path d="m231.4 826.5c.3.3-.5 0-.8 0-.5-.3.7-.3.8 0z" fill="#fec64e"/><path d="m239.8 831.4c-1.1-.6-.3-.7-.6-1.1.3.4.9.8.6 1.1z" fill="#fec64e"/><path d="m231.8 811.1c.5 0 .2-.3-.1-.6l-.4-.1z" fill="#fec64e"/><path d="m230.2 813.2c1.3.8.8.2 1.9.3.4-.3-.5-1.2-.2-1.6l-.6-.6c-.7.3-1.5 1-1.1 1.9z" fill="#fec64e"/><path d="m236.9 816.4c.7 0-.1-.9 0-1.1-.3.3-.6.8-.8 1 .3.2.6.1.8.1z" fill="#fff"/><path d="m232.8 806.8c-.2.5-1.6.8-.1 2.2.4-.1.8 0 1.3-.2 1.7 1.1-.5.5-.7.9.5-.1 1.1.6 1.1.9-.7.3-.8 1.1-1.1 1.8.5.6-.9 1.1.9 1.7 0 .5-1.4-.1-1.9.1 1.7 1.8-4.5 0-2.4 2.1-1-.5-1.1.1-1.2.2-.2.4-.7 1.4 1.3 1.9 1.5.3-.5-1.2 1-1.1 2.4.1.5 1.1 2.3 1.8-.3-.2 1.3.3.9-.2.5 1 2.1.5 3.1 1.3 1.4-.3 1.4-.3 3.8.3-.2-.6-1.8-1.1-2.6-1.6-.7-.9 1.5-.4 1.2-1 2.6 1.5 2.4.2 2.6-.3.4-.6-2.3-1.3-1.8-1.8 1.5.2 1.5 1.4 3.1 1.6l-.4-.6c-1-.7-2.3-1.4-2.9-2 0-.2.1-.4.5-.2.3.5 1.4.8 2.1.8-.4-.3-.5-.4-.9-.7-3.2-.7.1-.7-1.4-1.9-1.9-2.3 3.7 1 3-.8-2.7-.8-1-1.4-1.8-2.2.2-.3 1-.1 1.9.1-.2-.2-.3-.5-.7-.8-3.5-1.5-7-2.2-10.3-2.5 0 .1.1.2.1.2z" fill="#fec64e"/><path d="m242.1 845.6c0-.5.7-.8 1.4-.2l.5.2c-.2.3-1 1.4-1.9 0z" fill="#fec64e"/><path d="m238.6 843.4c.5-.1.5.3.8.5l-.3.3c-.5-.1-.5-.6-.5-.8z" fill="#fff"/><path d="m231.5 838.3h-.3c.3 0 .4-.1.5-.2.4.2.6.7.3.8-.1-.2 0-.4-.5-.6z" fill="#fec64e"/><path d="m243 838.1c-1.1-.8-3-1.6-4.5-1.8l-1.8-1.4c1.2.3 1.1-.8 1.4-1.3-.3-.5-1 .1-1-.7.3.1.8.5 1 .5-.2-.8-1.9-1.5-.8-2.3l1.2.3c1.1-1.8.7-4.6 2.6-5.7-.8-.9 0-1.6-.3-2.5l.6.3c-.8-.9.7-.7.8-1.1h.8c1.1.4-.1 1.2 1.5 1.8 1.3-.2-.6-2 .8-2.1.6-.5-.1-.8-.2-1.4-.5-.4-.7-.2-1.3-.7.4-1.6 3.6.2 4-1.2-.5-.3-1.2-2-2.4-1.5l.4.8-.8-.1c.2-.3.6-.9-.2-1.2 2.5.8-.9-3.5 2.1-.6-.9.3-.9.5-.1 1.4.9-1.2 2.5-1.8 3.1-2.8l-.8-.9c1 .5 2 .4 2.5 0-.1-.3.1-.6-.4-.8-.6-.4-1.4 1.7-2.7-.2 1.1-.9 2.6-1.7 4.5-1.7-.1.7-.5.9.5 2.3.3 2.7-2 4.3-1.5 7.2-.7-.3-1.3 0-1.9-.5-.6-.1-.3.7-1.4.3.1 2.1-1.4 3.5-2.3 4.7 2 .7.7 1.5 1.1 2.3-1-.1-1 .7-1.2 1.2.3.2.2.6.7.8 0-.5.4-.3.8-.6 1.2.9-.5.7-.9 1.2l-.5-.7c-.6.8-3.3.5-2.6 1.9l1.6.1c0 1.3-2.4 1.4-1.3 3 .8-.3.5-1.9 2.2-.9.9.6.4 1.3-.2 1.4-2.6.1.2 3.5-3.1 3.2z" fill="#fec64e"/><path d="m247.2 837.9c.7-1.3-2-2.1-1-3.1.8.7 1.9.6 2.2.2-.3-.7.4-.9.5-1.3.3-.1 1.4.6 1.1 1-2.4.1-.5 3.3-2.8 3.2z" fill="#fec64e"/><path d="m241.7 835.9c.2-.7 2.1.8 2-.1.9.9-.2.3-.5.9l-.4-.7z" fill="#fff"/><path d="m247.5 832.7c.1-.5 1.2-1 2.4-.4.1 0 .7.5.6.1-.6.2-1.4 1.1-3 .3z" fill="#fec64e"/><path d="m241.8 831.5c-.1-.3 0-.6.2-.9.1.4.5.9-.2.9z" fill="#fff"/><path d="m245.6 830.9c-.9-.5 0-.5 0-.6h.5c.2.4.1.7-.5.6z" fill="#fec64e"/><path d="m250.3 829.1c.7-.4.8 1.3 1.3.7l-.1.5-1.4-.7z" fill="#fec64e"/><path d="m252 829c-.2-.3-.2-.6.2-.7l.4.5c.2.2-.5 0-.6.2z" fill="#fec64e"/><path d="m248.5 827.9c-.1-.5.5 0 .9 0 .3.3-1 .3-.9 0z" fill="#fec64e"/><path d="m241.8 820.3c1 .9 0 1 0 1.7 0-.7-.5-1.2 0-1.7z" fill="#fec64e"/><path d="m240.3 850.2c-.5 0-.4.4-.2.8l.4.1z" fill="#fec64e"/><path d="m243.1 847.3c-1.1-1.1-.8-.3-2-.4-.6.4-.1 1.7-.6 2.3l.4.8c1-.4 2.2-1.4 2.2-2.7z" fill="#fec64e"/><path d="m237.2 842.6c-.8.1-.3 1.2-.5 1.6.5-.4 1-1.1 1.4-1.4-.3-.3-.6-.2-.9-.2z" fill="#fff"/><path d="m236.9 856.4c.5-.8 2.2-1.1 1.2-3.1-.5.2-.9-.1-1.6.4-1.3-1.6.9-.8 1.2-1.3-.7.2-.9-.9-.8-1.3.9-.4 1.5-1.7 2.1-2.7-.3-.8 1.6-1.5-.1-2.4.3-.7 1.5.1 2.2-.1-1-2.6 5-.1 3.7-3 .9.7 1.2-.1 1.5-.3.5-.6 1.5-2-.5-2.8-1.5-.4-.1 1.7-1.7 1.6-2.6-.2 0-1.6-1.6-2.7.2.3-1.3-.5-1.1.3-.1-1.5-2.1-.8-2.7-1.9-1.7.5-1.7.4-4.1-.4-.1.9 1.4 1.7 2.1 2.4.3 1.3-1.9.6-1.9 1.5-2.2-2.2-2.6-.3-3.1.5-.8.9 2 1.8 1.1 2.7-1.5-.3-.9-2.1-2.6-2.3l.2.8c.8 1 1.8 2 2.3 2.9-.1.2-.3.6-.7.3-.1-.7-1.1-1.2-2-1.2.2.5.3.6.6 1 3.2 1-.5 1 .6 2.7.9 3.3-3.7-1.3-3.8 1.2 2.6 1.1.4 2 .8 3.2-.4.4-1.2.1-2.1-.1.2.3 0 .8.4 1.1 3.2 2 6.9 3 10.4 3.4.1-.3.1-.4 0-.4z" fill="#fec64e"/><path d="m287.9 740.2c.2-.6.3-.9.5-1.5.2-1 .1-1.9.6-3.2.2-.4 1.2-1.6 1.1-1.4.1 1.2-.9 4-.8 5.5 0 .2.6-.7 1.1-1.1 0 0 0-.2.1-.5.6-.7.7.2 1.2-.1.1-.3.1-.3.2-.7-.4 1.7.3 1.4.8 1.5 0 .2 0 .5-.1.7.5-.2.7.5 1.5-.2.6-.3.8.6 1.4.5.8.5 1 2.8 2.7.7.3-.4.5-.2.4.8 1.4-2.5 2.1-1.4 2.5-.8.2.1 0 1.3-.2 2.1.9-.9 1.7-1.7 2.1-1.7.6-.1.9-.4 1.2.7 0 .1.1-.3.1-.7 0 .2.1.5.1.7 0 0 0-.1 0-.3v-.2-.1.1c0 .1.1.2.1.3s0 .1.1.2c0 0 0 .1.1.2.1.3.4.9.7 1.5.6 1.1 1.2 2.4 1.9 3.7.1 1 .4 2.7.2 4s-.9 2.2-1.9 1.2c-.5-.7-1.1.4-1.7.7-.5.6-.9-.9-1.5.8-.4-2.2-1.2-3.9-2.3-3.2 0-.2.1-.4.1-.7-1.7 1.7-2.8.6-4.3.8-.8.3-1.3-.7-2.4-.1-.1.2-.2-.7-.5-.6-.1.2-.3.3-.4.5-.5-.3-1.3 0-1.4-1.1-.2-.9-.7-.7-.9-1.4-.3-1-1.7-.3-1.4-2.3 0-.2-.2-.2-.4-.3l.1-.7c-.1-.1-.7.9-.8.8-.7-.8-1.8-1-.9-4 .3 0 .7-.2 1-1.1z" fill="#fd92f3"/><path d="m287.3 733.5c.2-.4.2-.5.1-.5-.2.4-.4 1-.4 1.4l-.1-.2c-.6.9.1.4-.3.7-.1-.2-.1-.4.2-.8-.1.3 0 .1 0 .3.3-.6.4-1 .5-1.4l.3.2z" fill="#fd92f3"/><path d="m287.4 735v-.1c-.2.4-.3.7-.4 1 0-.8.6-1.2.8-2-.1.3-.1.7-.4 1.1z" fill="#fd92f3"/><path d="m286.1 736.6c.3-.9-.2-.3.3-1.3l-.2 1.1z" fill="#fd92f3"/><path d="m288.5 737.4c.2-.3.1-.1.2.1z" fill="#fd92f3"/><path d="m293 740.5c.1-.6.2-1.2.1-1.5.2.1-.1 1.3-.1 1.5z" fill="#fd92f3"/><path d="m293.9 744.7c-.1.3-.1.5-.3.6 0-.2.4-1 .1-.6z" fill="#fd92f3"/><path d="m293.5 746.5-.1.7c0-.2 0-.5.1-.7z" fill="#fd92f3"/><path d="m290.9 735.7-.1.2s.1-.1.1-.2z" fill="#fd92f3"/><path d="m290.9 736.4.1-.8c-.1.1-.1.1-.1.2.1.2-.3.8 0 .6z" fill="#fd92f3"/><path d="m290.7 736.2.1-.3c-.5.5 0-.8-.4-.6-.1.7.1.9.3.9z" fill="#fd92f3"/><path d="m290.1 736.8-.3.4c0-.1.1-.5.2-.6l-.2.1c-.4.6 0 1 .1 1.2z" fill="#fd92f3"/><path d="m286 741.8v-.1z" fill="#fd92f3"/><path d="m285.7 743.6.6-1.1c-.3 0 .1-.8-.2-.7-.6 1.1-.1.8-.4 1.8z" fill="#fd92f3"/><path d="m290.6 737.8c-.2-.1-.3-.2-.7.4l.2.5c.2-.7.3-.6.5-.9z" fill="#fd92f3"/><path d="m289.9 740.1h-.2l-.1.4c.1-.2.2-.3.3-.4z" fill="#fd92f3"/><path d="m289.6 740.5c-.1.2-.1.4-.1.4z" fill="#fd92f3"/><path d="m288.9 741.2c-.2.8.2-.1.3.2.3-.8-.2-.1-.3-.2z" fill="#fd92f3"/><path d="m289.5 742-.2.6.4-.8z" fill="#fd92f3"/><path d="m292.5 739.1c-.5.6-.2.8-.4 1.3z" fill="#fd92f3"/><path d="m288.9 744 .3-.8-.2.4s-.2 0 0-.4c-.5.9-.1.5-.1.8z" fill="#fd92f3"/><path d="m290.5 742.4v.6" fill="#fd92f3"/><path d="m287.2 746.5c-.2.3-.3 1.5-.5 1 .1.2.3.2-.1.8.2.1.4-.8.7-1.1-.4.4-.1-.5-.1-.7z" fill="#fd92f3"/><path d="m287.4 747.5c0 .2 0 .6.2.3-.1-.1.1-.8-.2-.3z" fill="#fd92f3"/><path d="m286.6 749.5.2-.8-.3.9z" fill="#fd92f3"/><path d="m291.1 744.7.5-1.1" fill="#fd92f3"/><path d="m287.2 749.8-.4-.1.1.6c.4-.4.4-.7.4-1.1.1.2 0 .3-.1.6z" fill="#fd92f3"/><path d="m287.4 748.2-.3.3c-.1.2.1.3.2.5 0-.3 0-.5.1-.8z" fill="#fd92f3"/><path d="m287.3 749v.3c.1-.2.1-.3 0-.3z" fill="#fd92f3"/><path d="m292.2 744.6-.3-.3c0 .4.1.4.3.3z" fill="#fd92f3"/><path d="m287.1 750.9.4-.8c-.2.1-.3.6-.4.8z" fill="#fd92f3"/><path d="m286.9 752.7c-.1.6.3.1.4.1.1-.7 0-.7-.1-.9.1.2-.2.4-.3.8z" fill="#fd92f3"/><path d="m286.9 754-.3-.2c-.3.9.1.2.3.2z" fill="#fd92f3"/><path d="m287.6 753.9c.1-.1.1-.3.3-.5.1-.4-.1-.3-.1-.4z" fill="#fd92f3"/><path d="m288.5 744.2h.3c0-.3-.1-.5-.1-.7-.1.3-.2.5-.2.7z" fill="#fd92f3"/><path d="m304.4 741c0-.2-.1-.3-.1-.4v-.1.1c.1.2.1.2.1.4s-.1.3-.2.5c-.1-.1-.2.3-.4.8-.2.4-.5.9-.9 1.1l.1-.4c-.3-.5-1.1.2-1.7.1l-.1.5c.1.1.2.1 0 .8-.1-.2-.2-.5-.1-.9l-.3.6c0-.4.5-1.9.2-1.5-.6 1.6-.2-1.3-.8.7.3-1.2-.3-.3-.4-.4l-.2.9c-.1-.6.1-2-.1-1.8-.4.1-.9 0-1.4.3.3-1.1.4.1.5-1-1.4 1.7-1.3-1.4-2.5-.7 0 .1 0 .2-.1.4.1-.9-.4-.1-.5-.7-.2.7.1.9.2 1.1-.7 1.6.1-.5-.4-.1 0 .1 0 .3-.1.5-.5.2.3-1.1-.1-.9l-.1.6c-.2-.1-.2.2-.6.5.4-.9.5-1.7.5-1.8-.2.4-.3 0-.6.9.4-2-.6.3-.2-1.6-.4.7-.2.9-.5 1.6-.5.4.3-1 .3-1.3-.2.3-.8.4-.7-.4l-.3.7c0-.8-.4-1.2 0-2.2-.5.9-.3 1-.1 1.1-.2.5-.5.7-.5.5 0 0-.1.5.1.2-.2.6-.2.2-.3.3-.2-.4.3-.3.3-.8-.2.2-.5-.1-.7.8-.3-.1.3-1 .3-1.4-.1.7.6-.6.4.3.2-.3.3-.6.3-.9-.3.1-.4-.8-.8.1l.2-.7-.4.6v-.2c-.3 1-.3 1.5-.6 2.4-.2.4-.2.2-.3.2l.3-.8c-.1-.3-.8 1.3-.9.9.6-.9.4-1.6.5-2.4-1 1.6-.6 1.3-1.4 2.7-.2-.1-.7.2-.7-.5.5.3.3-1.3 1-1.7 0-.2-.2 0-.3-.1.6-1.4.6-1 1-2l-.5.9c.2-.7.6-1.8.5-2.2-.2.4-.6.9-.6.6.3-.7.4-.9.2-1.1-1.3 1.5-.7 2.5-1.3 4.1.4.8-1.5 4.9-1 6.2.4-.5.4-.7.8-.8.8-1.4.2-1.4.4-2.4.2-.2.4-.4.3-.1l.4-1c.6-.2-.5 1.6.1 1.4l-.2.2.3-.2v-.2c.2 0 .5-.7.5-.3l-.4.6c.3-.4-.2.8.1.5-.3.3-.5.8-.6.8 0 .6.2.8.3 1 .9-.2 1.4.5 1.7 1.7 0-.2 0-.3.1-.4.2-.2.1.2 0 .7.1.2.1.5.2.7.3 0 .6-.1.9.1-.2.5-.3.7-.3.7.2 0 .3-.2.4-.8.3 0 .2.5.3.6l-.7.7c0 .4.4-.7.5-.2.4-.2.2-.9.5-1.7l.1.2.3-1.1c.2.4 0 1.4-.1 2l-.1-.5c-.5 1.1.3.3.1 1l-.1.1c.3.2.2-.6.4-.7v1.2l.2-.8c.4-.4.4 1 .7 1.4.1.3.6-.2 1-.3 0-.2 0-.4.1-.7.1.1.5.2.1 1l.5-.6c.1 0 .1.2.1.4l.1-.4.4-.2c-.1.2-.1.6-.2.6 0 1 1-.6 1.3 0l-.3.4c.5-.5.1.9.6.4l.1-.6c.3-.2.5.7.3 1.2.5-1.6 0 .5.5-.8l-.3 1.5c.3-.4.5-.6.6-1.3.1.7.2.9.6 0 .1-.1.3.2.3-.5.5.1 0 1.5.5 1.5l.2-1.1c.4.3.9-.5 1.3-1.1l-.1.9c.2-.2.1-.9.4-1.1v.7c.3 0 .7.5 1.2.6 0 .2-.1.3-.1.4.2 0 .6-.4.8-.8.6 1.5 1.8 2.5 2.7 1.9.1-2.4-.7-4.9-1.8-7.3-.4-.8-.7-1.5-1-2.3-.1-.2 0-.1-.1-.3 0-.2-.1-.3-.1-.5z" fill="#fd92f3"/><path d="m204.6 747.7c-.6.2-.9.4-1.6.6-.9.6-1.5 1.7-2.9 2.1-.5 0-2.1-.5-1.8-.7.4-.8 1.4-1.4 2.3-2 .5-.3 1-.7 1.4-1 .2-.2.4-.4.6-.6s.3-.4.5-.7c.2-.2-1-.7-1.5-2.2 0 0-.3.4-.5.8-.2-.4-.3-1-.2-1.8s.4-1.7.9-2.7c.6-1 1.3-1.8 2.2-2.5.4-.4.9-.7 1.4-1s.9-.5 1.4-.7c-.9-.1-.9 0-1.6-.1h1.5c.5 0 1 0 1.5.1 1 .1 1.8.2 2.5.4 1.5.3 2.5.6 3.4.9.2.3.3.7.4 1 .2.1.4.1.5.2l.3.1h.1c.1 0 .2.1.2.1.2.1.4.1.7-.2.2-.2.3 0 .5.2.1.2.3.4.5.4.3.3.6 1.1 1.1 1.7.4.5.9.6.6-1-.1-.6 0-.4.7 1.1-.6-2-.8-2.8-.8-3.1 0-.2.2.1.4.1.1 0 1 1.2 1.7 2-.8-1.8-1.6-2.9-1.6-3.2-.1-.3-.2-.5-.1-.6v-.1l.1-.2c.1-.3.2-.6.4-.9.3-.6.7-1.2 1.2-1.8.2-.3.1-1.2-.1-1.7.3-.1.6-.1.9-.2.3-.8.4-1.7.6-2.6s.5-1.7 1.2-2.2c1-.7 2.2-.5 3.4 0s2.3 1.5 3.4 2.3c.1.7.3 1.4.6 2.2s.7 1.5.9 2.2c.6 1.4.8 2.3-.6 2.9-.5.1-.6.5-.5 1 0 .4.2 1 .3 1.4.4.8-1.2.9.2 2.5-1.2.3-2.3.9-3 1.6s-1 1.6-.8 3c-.2 0-.4-.4-.7-.4.6 2.1.5 3.8.1 5.2-.2.7-.4 1.3-.6 1.9s-.6 1.3-1.4 1.7c-.7.4-1.3.2-2.2-.4-.8-.4-1.6-.8-2.5-.8-.2.1-1-1-1.4-1.1-.2.1-.3.2-.5.3-1.3-.8-2.9-1-3.6-2.4-.9-1.2-1.9-1.4-2.6-2.3-.2-.3-.6-.6-.9-.9-.4-.2-.9-.5-1-.6-.5-.3-.8-.7-1-1.7-.1-.3-.4-.1-.5-.1-.1-.2-.3-.4-.4-.6-.1 0-.1.3 0 .6s.3.5.3.5c-.1 0-.3.1-.4.5-.1.3-.1.8-.2 1.3-.2 1-.8 1.8-2.3 2.5.3-.1-.2-.7-1.1-.3z" fill="#eed9cc"/><path d="m200 755.9c-.5 0-.5.3-.4.4.4-.2 1-.4 1.3-.8l-.1.5c1.1.1.2-.5.7-.3-.1.3-.2.5-.8.5.3-.1.1-.2.2-.4-.7.1-1 .4-1.4.6v-.8z" fill="#eed9cc"/><path d="m201 754-.1.2c.5 0 .7-.2 1-.4-.6.8-1.4.2-2.1.7.4 0 .8-.5 1.2-.5z" fill="#eed9cc"/><path d="m203.1 754.6c-.9.4-.1.6-1.1.9l1-1z" fill="#eed9cc"/><path d="m202 749.4c-.4-.2-.2-.1-.1-.5z" fill="#eed9cc"/><path d="m215.4 739.2c.1-.6.4-1.2.3-1.5.2.1-.3 1.2-.3 1.5z" fill="#eed9cc"/><path d="m217.5 744.5c0 .4.1.6-.1.7-.1-.3.1-1.2-.2-.8z" fill="#eed9cc"/><path d="m217.8 746.8.2.7c-.1 0-.1-.4-.2-.7z" fill="#eed9cc"/><path d="m199.1 746.8.2-.1s-.1 0-.2-.1z" fill="#eed9cc"/><path d="m199.6 745.6c-.2.4-.4.7-.7.9.1 0 .2.1.2.1.1-.2.3-.3.4-.4.2-.1.3-.2.1-.6z" fill="#eed9cc"/><path d="m199.6 746.6-.3.1c.7.4-.7.8-.2 1.4.6-.6.6-1.1.5-1.5z" fill="#eed9cc"/><path d="m200.5 747 .5.1c-.1.2-.4.2-.6.2l.2.3c.7 0 .8-1.1.8-1.3z" fill="#eed9cc"/><path d="m208.7 748.2-1.3.1c.2.4-.7.6-.4 1.1 1.3-.3.8-.7 1.7-1.2z" fill="#eed9cc"/><path d="m200.8 744c0 1.3 0 1.8.8 1.9l.2-1.6c-.5.8-.5 0-1-.3z" fill="#eed9cc"/><path d="m203.5 742.2c-.1.4-.2.8-.2 1.2l.5-.4c-.1-.1-.3-.4-.3-.8z" fill="#eed9cc"/><path d="m203.8 742.9c.2.1.4 0 .5-.4-.1.2-.3.3-.5.4z" fill="#eed9cc"/><path d="m204.7 744.6c.8-.4-.2-.3.1-1.2-.4-.1-.5.2-.4.5s.3.5.3.7z" fill="#eed9cc"/><path d="m206.4 741c.2.1.5.2.7.3-.2-.3-.3-.5-.5-.8-.1.1-.1.3-.2.5z" fill="#eed9cc"/><path d="m214 737.1c-1 .4.1 1-.1 1.4 0-.5.1-1 .1-1.4z" fill="#eed9cc"/><path d="m208.4 742.1c-.2-.2-.4-.4-.6-.6 0 .2.1.3.1.4-.1.1-.3.3-.7.2.7.7.8-.1 1.2 0z" fill="#eed9cc"/><path d="m210.9 739.9c.2.2.3.5.4.7" fill="#eed9cc"/><path d="m209.3 743.9c-.1-.1 0 0 0 0z" fill="#eed9cc"/><path d="m209.2 743.9v.1s0 .1.1.2c0 .1 0 .3.1.4 0-.1 0-.2 0-.3s0-.1 0-.2c-.1-.1-.1-.1-.2-.2z" fill="#eed9cc"/><path d="m209.3 744c0-.1-.1-.2-.1-.2s.1.1.1.2z" fill="#eed9cc"/><path d="m213.2 743.2.5-1.1" fill="#eed9cc"/><path d="m209.2 746.4c.1-.7.2-1.2.2-1.7 0 .4 0 .9-.1 1.5-.3 1.1-.1.5 0-.2-.1.2-.1.4-.1.4z" fill="#eed9cc"/><path d="m209.4 744.6c0-.1 0-.3 0-.4 0 0 .1.5 0 1.2 0-.4 0-.8 0-.8z" fill="#eed9cc"/><path d="m209.4 745.4c0 .2-.1.4-.1.6 0-.2 0-.3.1-.6z" fill="#eed9cc"/><path d="m214.9 743.6-.5-.5c.1.4.3.6.5.5z" fill="#eed9cc"/><path d="m208.8 747.9-.1.3v-.1l.1-.2c-.1.2 0 0 0 0z" fill="#eed9cc"/><path d="m207.9 749.8c-.1.2-.1.2-.2.4l-.1.1h.1c0-.1 0-.2 0-.2.2-.1.2-.2.2-.3 0 0 .1-.1.1-.1 0-.1.1-.1.1-.2 0 .1-.1.2-.2.3z" fill="#eed9cc"/><path d="m207.4 751.5-.2-.1-.1-.1.7-1.1s-.1.1 0 0v.1l-.9 1.3h.1c.2-.2.3-.2.4-.1z" fill="#eed9cc"/><path d="m209.3 751.9c.1 0 .2-.3.4-.4 0-.4-.4-.4-.6-.6 0 .3.1.7.2 1z" fill="#eed9cc"/><path d="m208 742.8c.1-.2.2-.3.4-.5-.4-.1-.8.1-1.2.3.3.1.6.2.8.2z" fill="#eed9cc"/><path d="m221.3 727.4c.7 1.9 0 4-.1 5.2-.2.4-.3.9-.3 1.5 0 .5 0 1.1.1 1.6l.1.4c.1 0 .1.1.1.1.1.1.2.2.3.3.2.2.3.5.3.7l-.3-.2c-.3.1-.2.4-.2.9.1.4.2 1 .2 1.3l.4.4c.1 0 .1-.2.6.5-.2 0-.4 0-.7-.3l.5.8c-.3-.3-1.6-2-1.3-1.3.7 1 .4.8.2.6s-.4-.3.4.9c-1-1.4-.2.1-.3.2l.7 1.2c-.4-.3-1.6-2.1-1.4-1.6 0 .3-.1.5-.2.7s-.2.3-.3.5c-.6-1.7.3.2-.5-1.6.3 1.4-.3.7-.7.1-.5-.7-.8-1.4-1-.9 0 .1.1.3.1.5-.2-1.1-.3-.2-.5-.9 0 .9.3 1.1.4 1.4 0 2.1-.1-.6-.4-.1 0 .1.1.4.1.6-.4.2-.1-1.4-.3-1.2l.1.7c-.2-.2-.1.2-.4.5.2-1.1.1-2 .1-2.1-.1.5-.2 0-.4 1 .1-1.1 0-1-.2-.9-.1.1-.3.2-.1-.8-.4.7-.2 1-.5 1.7-.5.3.3-1 .3-1.4-.2.3-.7.4-.5-.4l-.4.6c0-.1 0-.2 0-.3 0 0 0-.1-.1-.2l-.2-.2c-.2-.3-.5-.6-.7-.9-.5-.6-1-1.1-1.2-1.7-.9.8.2 1.1 1 1.6-.1.6-1 .5-1.3.2.2.1.1.5.5.3-.2.6-.6 0-.9.1-1.5-.7.7-.2.2-.8-.3 0-.9-.1-1.4-.1s-.8.2-.5.7c-.8-.1-1-.3-1-.7-.1-.3 0-.7-.6-.9.9.3 1.3.2 1.8.1.4-.1.8-.2 1.1.4.4-.3.4-.5.1-.9-.7-.1-1.7-.4-3-.5s-2.6.4-2.4.8c-.5-.1-1-.1-1.6-.1-.4.4-.7.9-1 1.4-.2.1-.4.1-.6.2.9-.1 2-.3 2.8-.2.5 0 .9.1 1.2.2s.6.3.8.5c.2.4-.9.3-1.5.7-.3-.2-.5-.4-.8-.5-1 .4-1 1-1.1 1.5 0 .3-.1.6-.2.9s-.3.6-.6 1.1c-.1-.4-.2-.6-.5-.5s-.7.4-1 .8c-.7.9-1.2 2.1-1.5 2.7.9.6 1.3.5 1.6.4s.6-.1 1.4.2c0 .8.6 1.3.1 2-.1-1.3-1.2.8-2-.1-.2.2.1.4.1.6-1.4.4-1.2-.2-2.3.3h1c-.7.4-1.8.8-2 1.4.5 0 1.1.2.8.5-.7.2-1 .3-1 .8 2 .8 2.4-1.4 4.1-1.9.1-.8 1.3-1.4 2.6-2 .6-.3 1.3-.7 1.8-1 .5-.4.9-.8 1.2-1.2-.6-.3-.8-.2-1-.8-.3-.2-.6-.4-.8-.4s-.5.2-.6.4c-.4.5-.6 1.1-1.1 1.4-.3-.2-.5-.6-.2-.9-.4.1-.7.2-1.1.3-.1-.5 0-.9.2-1.1s.4-.4.7-.4c.5-.2.9-.2 1.3-1.2v.5c.1-.4.3-.8.5-1.1-.1 0-.2 0-.3.1.2-.3.3-.7.5-1s.6-.7 1.3-.7c-.3.3-.5.7-.7 1.1.2-.4.5-.3.8-.2s.6.3.9.1c-.4.5-.3 1-.5 1.1.5.1.9.2 1.2.4.3.1.5.2.8.3.9-.1 1.7.3 2.3.9.5.5 1 1.2 1.5 2 0-.2 0-.3 0-.4.3-.1.3.4.3.9.2.3.4.7.6 1 .6.2 1.1.3 1.8.8-.1.5-.1.7-.2.6.3.1.5 0 .3-.7.4.1.6.8.9 1-.3.1-.6.3-.9.4.3.5.4-.6.8.1.7.1-.2-1 0-1.7l.2.3-.2-1.4c.2.3.4.9.6 1.3.1.4.3.9.4 1.3l-.4-.6c-.2 1.1.7.5.9 1.4h-.1c.7.4-.2-.7.3-.6.3.5.5 1 .9 1.5l-.2-.9c.4-.2 1.4 1.5 2.3 2.2.5.5.9.1 1.4.3-.2-.3-.4-.6-.5-.8.3.3 1 .5 1.1 1.2l.2-.6c.2 0 .4.1.6.2l-.3-.3c.2-.1.3-.3.4-.6.1.2.4.4.2.6.5.2.6-.3.7-.9 0-.6-.1-1.4.2-1.7l.2.7c-.2-1.2.7.2.5-1l-.5-.5c-.1-.8.7-.9 1.1-.2-1.2-1.6.4.2-.6-1.5.4.4.8.7 1.2 1.1-.2-.7-.4-1.3-1-1.7.6.1.9-.3.1-1.4-.1-.2.2-.5-.4-.8.2-1.1 1.4.5 1.5-.8l-1-.8c.4-.7-.3-2.1-.7-2.9l.9.3c-.1-.5-.9-.3-.9-1 .2 0 .5 0 .7.1.1-.6.8-1.3 1.2-2.1.2.1.3.2.4.3.1-.4-.1-1.1-.2-1.7 1.8-.4 3.3-1.2 3.7-2.3-1.4-2-2.9-4.3-4.9-6-.8-.4-1.7-.6-2.8-.4-1.4 0-2.6.3-3.7 1z" fill="#eed9cc"/><path d="m416.1 759.3h-232l-8.4-37.1h246.8z" style="fill:none;stroke:#c9c9c9;stroke-width:3;stroke-linecap:round;stroke-linejoin:round;stroke-miterlimit:10"/><path d="m359.7 745.3c-.5-.4-.7-.6-1.3-1-.9-.5-1.8-.6-3-1.4-.3-.3-1.1-1.7-.8-1.6 1.4.1 3.8 2 5.2 2.4.2.1-.3-.9-.5-1.5 0 0-.2-.1-.4-.3-.3-.9.7-.7.8-1.4-.3-.2-.3-.2-.5-.4 1.4 1.1 1.6.3 2.1-.1.2.1.4.3.6.4.1-.3.4-.5.8-.7s.8-.6 1.4-1.2c.6-.5 1.6-.7 3.1-.6.7.1 1.6.3 2.3.5h.1.1c.1.2 0 .7.1 1.1 0 .5.3.7.6-.9.1-.5.1-.4.1.6.1-1.6.2-2.2.2-2.3s.1.2.2.3c0 0 .3 1.2.5 2v-.2c.1-.1.2-.2.3-.3.2-.2.5-.3.7-.5.5-.3 1-.5 1.5-.7 1-.3 1.8-.4 2.5-.3.8.1 1.5.1 1.9.3 0 0 .1 0 .1.1.3-1-.4 1.4-.3 1.1v.1c0 .2-.1.6-.2 1 0 .3-.1.8-.1 1.1v.4c0 1.2.4 2.1.6 2.4.1.2.1.1.1.1l.1.1.2.1c.4.3.9.7 1.2 1.4.3.6.5 1.4.4 2.2-.2 1.5-1.4 2.4-2.3 1.4-.5-.7-1.2.2-1.9.5-.3.2-.5 0-.8-.1-.2-.1-.4-.1-.8.7.1-1.1 0-2.1-.2-2.7s-.6-.8-.8-.4c0-.2 0-.5 0-.7-.2.5-.4.8-.4 1.1v.3c-.1.1-.1.1-.2.2-.2.1-.3.3-.5.4-.7.5-1.2.8-1.8 1.4-.3.4-.7.5-1.1.5s-.9-.1-1.4.2c-.1.2-.3-.8-.5-.7l-.3.5c-.2-.2-.5-.3-.8-.5-.1-.1-.3-.2-.4-.4-.1-.1-.1-.2-.1-.3s0-.1 0-.2.1-.2.2-.3l.1-.1.1-.1c-.1.5 1-4 .5-2.1v.1.4c0 .2.1.4.1.6 0 .1.1.3.1.3s0-.1-.1-.1c-.4-.7-.6.8-2.1-.5-.2-.2-.2.1-.4.1l-.6-.5c-.1.1.5 1 .4 1-.9.2-1.4 1-3.9-.9 0-.4-.1-.9-.8-1.4z" fill="#f94d45"/><path d="m352.5 744.9c-.3-.3-.5-.2-.5-.1.4.2.9.5 1.4.5l-.3.2c.8.8.4-.1.7.3-.2.1-.4.1-.8-.3.2.1.2 0 .3 0-.6-.4-.9-.5-1.4-.7l.4-.4z" fill="#f94d45"/><path d="m354.2 744.8h-.2c.3.3.6.4.9.5-.8-.1-1.1-.8-1.8-1.1.3.2.8.3 1.1.6z" fill="#f94d45"/><path d="m355.4 746.4c-.9-.4-.3.2-1.3-.4l1.2.3z" fill="#f94d45"/><path d="m357.2 743.8c-.1-.3-.1-.2.2-.2z" fill="#f94d45"/><path d="m363.4 740.3c-.5-.4-1.1-.8-1.6-.7.4-.3 1.4.5 1.6.7z" fill="#f94d45"/><path d="m368.4 743.4c-.1.4-.1.5-.2.6 0-.2.3-1.1.1-.6z" fill="#f94d45"/><path d="m368 745.4-.1.8c0-.2 0-.5.1-.8z" fill="#f94d45"/><path d="m356.8 740.7.1.1c.1 0 0-.1-.1-.1.1 0 .1 0 0 0z" fill="#f94d45"/><path d="m357.6 740.8-.8-.4c0 .1.1.1.1.2.3.1.7.6.7.2z" fill="#f94d45"/><path d="m357.2 741-.3-.2c.2.7-.8-.3-.9.3.8.3 1.1.1 1.2-.1z" fill="#f94d45"/><path d="m357.5 741.8.2.4c-.1 0-.4-.3-.5-.4l-.1.3c.4.6 1 .3 1.2.3z" fill="#f94d45"/><path d="m360.6 747.6v-.1z" fill="#f94d45"/><path d="m362.2 748.5-.9-.9c-.1.2-.7-.3-.8 0 1 .8.8.3 1.7.9z" fill="#f94d45"/><path d="m358.8 741.6c-.2.1-.4.3 0 .8l.6-.1c-.5-.3-.4-.4-.6-.7z" fill="#f94d45"/><path d="m360.7 743.2-.1.2.3.3c-.2-.2-.2-.4-.2-.5z" fill="#f94d45"/><path d="m360.8 743.6c.1.2.3.3.4.3z" fill="#f94d45"/><path d="m361.2 744.6c.6.6 0-.2.3-.2-.6-.7-.2.2-.3.2z" fill="#f94d45"/><path d="m362.2 744.4.4.4-.5-.7z" fill="#f94d45"/><path d="m361.4 740.2c.2.8.6.6.9 1z" fill="#f94d45"/><path d="m363.6 745.8-.6-.6.2.4s-.1.1-.3-.1c.7.8.5.3.7.3z" fill="#f94d45"/><path d="m363.1 743.6.5.4" fill="#f94d45"/><path d="m365.1 748.5c.2.3 1.1 1 .7.9.2 0 .2-.1.6.5.2-.1-.6-.7-.7-1.1.3.5-.4-.2-.6-.3z" fill="#f94d45"/><path d="m366 748.9c.2.1.4.3.3 0-.1 0-.6-.6-.3 0z" fill="#f94d45"/><path d="m367.3 750.5-.5-.5.6.7z" fill="#f94d45"/><path d="m365.4 744.4-.6-1" fill="#f94d45"/><path d="m367.7 750.3-.2.2.5.3c-.2-.5-.4-.7-.7-.9.1.1.3.2.4.4z" fill="#f94d45"/><path d="m366.6 749.2.1.3c.1.2.2.1.4.2-.2-.1-.4-.3-.5-.5z" fill="#f94d45"/><path d="m367.1 749.7c.1.1.2.1.2.2 0-.1-.1-.2-.2-.2z" fill="#f94d45"/><path d="m366.3 743.5c-.2 0-.4 0-.5 0 .2.2.4.2.5 0z" fill="#f94d45"/><path d="m368.5 751-.5-.8c0 .2.4.7.5.8z" fill="#f94d45"/><path d="m369.7 752.3c.2.2.2.2.2.1v-.1l-.4-.7c-.1-.2-.3-.4-.3-.5.2.3.3.5.5.7-.1-.1-.1-.1-.2-.1-.1-.1-.1-.1-.2-.1 0 .1.2.4.4.7z" fill="#f94d45"/><path d="m368.8 750.6.6 1 1 1.6c.3.4.3.4.3.3-.4-.6-1-1.5-1.5-2.3-.2-.3-.4-.5-.4-.6z" fill="#f94d45"/><path d="m367.6 748.5s-.1-.1-.1-.2c.1.2.2.5.4.8z" fill="#f94d45"/><path d="m363.6 746.3c.1-.1.1-.2.1-.2-.2-.1-.5-.2-.7-.2.3.1.5.3.6.4z" fill="#f94d45"/><path d="m378.2 742.8c-.1-.3-.2-.8-.2-1.4s0-1.2 0-1.6c0-.3.1-.6.1-.8 0-.1 0-.2.1-.3v.1.2c0 .1-.2.2-.3.3s-.2.2-.4.2c-.3.1-.5.3-.8.3l.1-.3c-.7-.7-2.3-.2-4 0l.1.5c.3.1.6.1.4.7-.3-.2-.8-.4-1-.8-.1.2-.1.5-.2.7-.1-.2-.2-.7-.4-1-.1-.2-.2-.3-.3-.4s-.1-.1-.1 0c.1.8 0 .6-.1.3-.1-.2-.2-.4 0 .6-.2-1.2-.2-.1-.2-.1l.1 1c-.2-.4-.3-1.9-.4-1.6s-.2.5-.4 1.1c0-1.2.2-.1.1-1.3-.1 1-.3 1-.4.7s-.1-.9-.2-1c0 0-.1 0-.1.1s0 .2-.1.4c.2-.9-.1-.1 0-.7-.2.7-.1.9-.1 1.1-.5 1.8.1-.5-.1-.1 0 .1-.1.3-.1.5-.2.2.3-1.1.1-.9l-.1.6c-.1-.1-.1.2-.4.5.2-.5.3-.9.4-1.2 0-.2.1-.3.1-.4s-.2-.2-.2-.3c-.2.2-.6.1-1 .1s-.7.1-.7.6c-.4-.5-.8-.7-1.1-.8s-.6 0-.8.2c-.4.2-.7.5-1.6-.3-.2.9.7.7.9 1.5-.8.8-.6-.9-1.1-1-.1.2-.4.5-.7.7s-.6.3-1 0l.4.6c-.5-.2-.8-.2-1.2-.4-.3-.1-.7-.2-1-.6.5 1 .7.8 1 .6.4.4.3.8.1.8.1 0 .3.3.2 0 .4.5 0 .3 0 .5-.5.1-.1-.4-.5-.7 0 .3-.5.4.2 1.1-.3.2-.7-.7-1.1-.9.6.4-.1-.9.6-.3-.1-.3-.3-.5-.6-.7-.1.4-1.1.1-.5.9l-.5-.4.3.7-.2-.1c.8.7 1.3.9 1.9 1.6.3.4 0 .3 0 .4l-.6-.6c-.3 0 .8 1.3.3 1.3-.5-1-1.3-1-2-1.4 1 1.6 1 1.1 1.8 2.5-.2.1-.2.7-.8.5.6-.5-1.2-.7-1.2-1.6-.2-.1-.1.2-.2.3-1.1-1-.6-1-1.5-1.7l.6.8c-.7-.4-1.5-1.1-2-1.1.3.4.6.9.2.8-.6-.5-.8-.7-1.1-.4.9 1.8 2.3 1.3 3.6 2.4 1-.3 4.1 3.1 5.4 3.3-.3-.6-.4-.7-.4-1.1-.9-1.4-1.2-.8-2-1.5-.1-.3-.2-.5.1-.3l-.8-.8c.1-.7 1.3 1.1 1.3.5l.1.3v-.4l-.2-.1c.1-.1-.4-.8.1-.6l.3.7c-.2-.5.6.5.5.1.2.4.5.8.4.9.5.3.8.2 1 .2.2-.4.4-.6.8-.7s.9.1 1.3.4c-.1-.1-.1-.3-.2-.3 0-.3.2.1.4.6.1.2.2.4.2.6 0-.1 0-.2.1-.2h.1c.1 0 .1.1.2.2-.2.6-.2.8-.3.8.2 0 .3-.2.4-.8.2 0 .1.7.2.8-.2.2-.4.5-.6.7 0 .5.4-.7.4-.2.3-.1.2-1.1.4-1.9l.1.2.2-1.2c.1.5-.1 1.6-.2 2.4v-.6c-.4 1.3.2.4.1 1.3v.1c.2.3.1-.7.3-.7v.1 1.3l.1-.9c.2-.3.4 1.2.8 1.6.2.3.6-.4.9-.6 0-.2-.1-.4-.1-.6.2 0 .5-.2.4.8.1-.3.2-.5.2-.8.1-.1.1.1.2.2l-.1-.4.2-.5c0 .2.1.5 0 .7.3.9.6-1.3 1-1.1l-.1.5c.2-.9.4.7.6-.1l-.2-.7c.2-.4.7.3.8.9-.2-.9-.1-.7 0-.6s.1.3 0-.5c.1.5.2.9.2 1.4 0-.4 0-.7 0-1.4.2.7.2.8.4-.2 0-.1.2.2.2-.5.4.1 0 1.4.4 1.4l.2-1.1c.3.3.8-.5 1.3-1l-.2.9c.2-.2.2-.9.6-1 0 .2-.1.5-.1.7.3 0 .5.6 1 .8 0 .2-.1.3-.2.4.2 0 .6-.3.8-.7.2.8.6 1.5 1.1 1.8.5.4 1.2.4 1.8 0 0-1.2-.4-2.4-1.2-3.4-.1-.1-.2-.2-.3-.4l-.3-.3s0 0-.1-.1c.2-.1 0-.4-.1-.9z" fill="#f94d45"/><path d="m395.5 744.7c-.3 0-.7 0-1.3.1 1.7-.6-2.5.1-1.7-.3-.1-.2-1-.3-.2-.6-4 .5.6-.5-2-.4-.5-.1-2.1 0-2.7.2-.2-.2 1.5-.3.8-.4l1.4-.1c.3-.1 1-.2.8-.2l-1.4.1c1.5-.3-1.2-.2-.3-.4-1 .2-.8 0-1.9.1.5-.1.8-.2 1.2-.2.4-.2-2-.2 0-.4h-.6c-.8-.1.2-.2.5-.3h-.8c-.4 0-.4-.2.3-.3.4-.2-1.3-.3-2.2-.5.8-.2-1.4-.1-1.9-.2.5-.1-.6-.3.5-.4.1.2 2.2.1 1.8.3.7-.1.8.2 1.8.1-1.7-.3-.2-.6-1.9-.9 2.1 0 1.2-.3.9-.4h.6c.3-.1.4-.2-.3-.3-.2-.2-.5-.4.7-.5 1.5-.1-.8-.5-2.2-.7-1.8.2 1.2.6-2.2.7.6-.2-.2-.2-1.2-.5l-.7.1-.4-.1c-.7 0-1.3-.1-2.1-.2v.3c.6-.1 1.5 0 2.2.1l-.3.1c.4 0 .7-.1 1.1 0-.1.1.3.1-.2.2l-1.6-.2c1.2.2-1.9.2-.6.5h-1.6l.1.2h-.6l-.2.2c.3.1 1 .2 1.6.2.1.1.3.2-.1.2l-1-.1-.3.1c.3-.1.6.1 1 .1-.2.2-.1.1-.9.3.7.1-.5.3.8.3-.8.3-.8.5-.8.8l.8.1c-.9.3.3.4.5.7h-.4l1 .1c-.8.3 1.2.2 0 .6-.5.3.9.3 2.6.3.8.1-.3.3-.4.4h-.6l-.7.2c.3.1-.2.2.5.3-.7.4 2.1 0 3.1 0l-1.6.4h.4c2-.1.8 0 1 .4l1.1-.2c-1.2.3.5.1.5.3.1.1-1.8.6-.3.5-1 .4 2.2 0 2.1.3-.8.3 1.1 0-.7.4l-1.8.4 1.3-.2c-.5.2 0 .2-1.4.5l2.4-.3c-.2 0-.1-.1 0-.2l-.4.1s-.4-.1.1-.3h.4c.3-.1.9-.2 1.1-.2-.6.3.7 0 1 0-.2.1-.3.1-.7.2.3 0-.7.4.6.1-.1 0-.1 0-.2 0 2.5-.6 4.7-1.1 6.8-1.6z" fill="#f94d45"/><path d="m386.5 714.9c-.2-.2-.6-.5-1-.8 1.7.7-1.9-1.6-1-1.3.1-.2-.6-.8.2-.5-3.4-2.1.8 0-1.4-1.5-.4-.3-1.7-1.2-2.3-1.5-.1-.2 1.4.7.9.3l1.1.7c.3.1.9.5.7.3l-1.1-.8c1.4.7-.9-.8 0-.5-.9-.4-.7-.5-1.6-1 .5.3.8.3 1.1.6.4.1-1.5-1.2.2-.3l-.5-.4c-.7-.5.3 0 .5.1l-.6-.4c-.3-.3-.2-.3.4 0 .4.1-.9-.9-1.6-1.5.7.3-1.2-.8-1.5-1.2.4.2-.4-.5.5 0 0 .2 1.8 1.2 1.4 1.1.6.3.6.6 1.5 1-1.4-1.1.1-.5-1.2-1.6 1.8 1.1 1.2.4 1 .2l.5.3c.3.1.4.1-.1-.4-.1-.2-.3-.5.8 0 1.4.6-.5-.8-1.6-1.5-1.7-.7.8 1-2.2-.6.6.2-.1-.2-.9-.9l-.6-.3-.3-.3c-.6-.3-1.1-.7-1.8-1.1l-.1.2c.6.2 1.3.7 1.9 1.1l-.3-.1c.3.2.6.3 1 .6-.1 0 .2.2-.3 0l-1.3-.9c1 .7-1.7-.8-.7 0l-1.4-.8v.2l-.5-.3h-.3c.2.2.8.6 1.3.9 0 .1.2.2-.1.1l-.8-.6-.3-.1c.3.1.5.4.8.6-.3 0-.1 0-.9-.3.5.4-.6-.1.6.6-.7-.3-.8-.1-.9 0l.7.5c-.9-.3.1.4.2.6l-.3-.2.8.6c-.7-.3.9.8-.2.3-.6-.1.6.6 2 1.6.7.5-.4 0-.5 0l-.5-.4-.6-.3c.2.2-.3 0 .3.5-.7-.2 1.7 1.2 2.5 1.8l-1.5-.7.3.2c1.6 1.1.7.5.6.8l1 .6c-1.1-.6.4.4.3.4 0 .1-1.7-.7-.5.1-1-.4 1.7 1.4 1.5 1.4-.8-.3.9.7-.7-.2l-1.6-.9 1.1.7c-.5-.2-.1.1-1.4-.6l2 1.4c-.2-.1 0-.1.1-.1l-.3-.2c0-.1-.2-.3.3 0l.3.3c.3.1.8.5 1 .6-.6-.2.5.4.7.6-.2-.1-.3-.1-.6-.3.2.2-.7-.2.4.5-.1 0-.1-.1-.2-.1 1.7.9 3.7 2 5.6 3.1z" fill="#f94d45"/><path d="m416.1 881.4h-232l-8.4-37.1h246.8z" style="fill:none;stroke:#c9c9c9;stroke-width:3;stroke-linecap:round;stroke-linejoin:round;stroke-miterlimit:10"/><path d="m367.9 664.7h-98.1c-6.6 0-12-5.4-12-12v-4.7c0-6.6 5.4-12 12-12h98.1c6.6 0 12 5.4 12 12v4.7c0 6.6-5.4 12-12 12z" fill="#eee"/><circle cx="230.4" cy="650.4" fill="#eee" r="14.5"/><circle cx="187.6" cy="650.4" fill="#eee" r="14.5"/><circle cx="410.6" cy="650.4" fill="#eee" r="14.5"/><path d="m336.2 657.1 13.4-13.5" fill="none" stroke="#808080" stroke-linecap="round" stroke-miterlimit="10" stroke-width="4"/><path d="m353.1 657.1 13.5-13.4" fill="none" stroke="#808080" stroke-linecap="round" stroke-miterlimit="10" stroke-width="4"/><path d="m413.6 647.5-11.8 11.7" fill="none" stroke="#808080" stroke-linecap="round" stroke-miterlimit="10" stroke-width="4"/><path d="m268.8 643.4h55.5" fill="none" stroke="#808080" stroke-linecap="round" stroke-miterlimit="10" stroke-width="3"/><path d="m268.8 650.4h55.5" fill="none" stroke="#808080" stroke-linecap="round" stroke-miterlimit="10" stroke-width="3"/><path d="m268.8 657.3h55.5" fill="none" stroke="#808080" stroke-linecap="round" stroke-miterlimit="10" stroke-width="3"/><circle cx="230.4" cy="650.4" fill="#c9c9c9" r="7"/><circle cx="410.5" cy="650.4" fill="#c9c9c9" r="7"/><circle cx="187.6" cy="650.4" fill="#c9c9c9" r="7"/><path d="m641.7 111.2v-35.8h11.9c2.8 0 5.2.4 7.2 1.1s3.6 1.9 4.7 3.5c1.2 1.6 1.7 3.7 1.7 6.1 0 1.7-.2 3.2-.7 4.6s-1.2 2.5-2.2 3.6-2.4 1.9-4.3 2.5c-1.8.6-4 .9-6.6.9-2.2 0-4-.1-5.4-.2v13.8h-6.3zm11.2-18.3c1.4 0 2.5-.1 3.5-.4s1.8-.6 2.3-1c.6-.4 1-.9 1.3-1.5s.6-1.2.7-1.7c.1-.6.2-1.2.2-1.9 0-2-.6-3.5-1.9-4.5s-3.1-1.5-5.4-1.5h-5.4v12.5z" fill="#eee"/><path d="m671.6 111.2v-26.8h5.4l.8 4.1c1.8-2.8 4.3-4.2 7.6-4.2.7 0 1.3 0 1.7.1l-.1 5.3c-.7-.1-1.3-.1-2-.1-2.4 0-4.1.6-5.3 1.9s-1.7 3-1.7 5.2v14.6h-6.4z" fill="#eee"/><path d="m702.4 111.7c-4 0-7.1-1.3-9.4-3.9s-3.4-6-3.4-10.2c0-4.3 1.1-7.7 3.4-10.2s5.5-3.7 9.6-3.7c4 0 7.1 1.3 9.4 3.8s3.4 5.9 3.4 10.2-1.1 7.7-3.4 10.2-5.5 3.8-9.6 3.8zm.1-4.8c2.2 0 3.8-.8 4.9-2.4s1.6-3.8 1.6-6.8-.5-5.2-1.6-6.8-2.7-2.3-4.9-2.3-3.8.8-4.9 2.4-1.6 3.8-1.6 6.8c0 2.9.6 5.2 1.7 6.8 1 1.5 2.7 2.3 4.8 2.3z" fill="#eee"/><path d="m720.7 111.2v-26.8h5.2l.7 3.4c.3-.4.6-.8.9-1.1s.7-.7 1.2-1.1 1.1-.7 1.7-1 1.3-.5 2.2-.7 1.8-.3 2.8-.3c2.1 0 3.8.4 5.1 1.3s2.2 1.9 2.7 3c1-1.4 2.2-2.4 3.7-3.2 1.5-.7 3.2-1.1 5.1-1.1 3.1 0 5.3.9 6.8 2.6 1.4 1.7 2.2 4.3 2.2 7.7v17.1h-6.4v-15c0-2.6-.3-4.5-.9-5.7s-1.7-1.7-3.3-1.7c-2.5 0-4.3 1.1-5.4 3.4-.5 1-.8 2.2-.9 3.6v15.7h-6.4v-15.6c0-2.4-.3-4.2-1-5.3s-1.8-1.8-3.4-1.8c-1.4 0-2.5.3-3.5 1s-1.7 1.6-2.2 2.7c-.4 1.6-.6 3.6-.6 5.9v13z" fill="#eee"/><path d="m767.5 80.5v-5.5h6.4v5.5zm0 30.7v-26.8h6.4v26.8z" fill="#eee"/><path d="m789.1 111.7c-4 0-7.1-.7-9.5-2l.7-4.8c1.1.6 2.4 1.1 4.1 1.6s3.2.7 4.5.7c1.4 0 2.5-.3 3.3-.8s1.2-1.3 1.2-2.3c0-.9-.4-1.7-1.1-2.2s-2.2-1.2-4.2-2c-.7-.3-1.2-.4-1.4-.5-2.5-1-4.3-2-5.3-3.2-1.1-1.2-1.6-2.8-1.6-4.8 0-2.4.9-4.3 2.6-5.6 1.8-1.3 4.2-2 7.4-2 3.4 0 6.4.6 9 1.9l-1.6 4.4c-2.6-1.2-5-1.8-7.3-1.8-1.3 0-2.3.2-3 .6s-1.1 1.1-1.1 2c0 .8.3 1.5 1 1.9.7.5 2.1 1.1 4.1 1.8.1 0 .3.1.6.2.4.1.6.2.8.3 2.5.9 4.3 2 5.4 3.2 1.2 1.2 1.7 2.9 1.7 4.9 0 2.7-.9 4.8-2.7 6.2s-4.3 2.3-7.6 2.3z" fill="#eee"/><path d="m817 111.7c-4.3 0-7.7-1.2-10.1-3.7s-3.6-5.9-3.6-10.3c0-4.3 1.1-7.7 3.4-10.2s5.3-3.8 9.3-3.8c3.7 0 6.6 1.2 8.6 3.5s3.1 5.4 3.1 9.2v1.3 1.4h-17.8c.1 2.5.8 4.4 2.1 5.8s3.1 2.1 5.4 2.1c2.9 0 5.7-.8 8.4-2.3l.9 4.5c-2.8 1.7-6 2.5-9.7 2.5zm-7.1-16.6h11.7c0-2.2-.5-3.9-1.5-5-1-1.2-2.4-1.8-4.1-1.8-1.6 0-3 .6-4.2 1.7-1.1 1.2-1.7 2.8-1.9 5.1z" fill="#eee"/><path d="m1309.4 924h-274.4c-6.6 0-12-5.4-12-12v-274.4c0-6.6 5.4-12 12-12h274.4c6.6 0 12 5.4 12 12v274.4c0 6.6-5.4 12-12 12z" fill="#c9c9c9"/><path d="m1290.7 902.5h-237.6c-6.6 0-12-5.4-12-12v-202.4c0-6.6 5.4-12 12-12h237.6c6.6 0 12 5.4 12 12v202.4c0 6.6-5.4 12-12 12z" fill="#151c3a"/><path d="m1062.6 947.8h-14.8l-6.7-23.8h29.5z" fill="#4c6677"/><path d="m1294.6 947.8h-14.7l-6.8-23.8h29.6z" fill="#4c6677"/><path d="m1334.1 1007.3h-320.8c-6.6 0-12-5.4-12-12l39.8-80.8c0-6.6 5.4-12 12-12h237.6c6.6 0 12 5.4 12 12l43.4 80.8c0 6.6-5.4 12-12 12z" fill="#c9c9c9"/><path d="m1036 922.1 12.8-22.5" fill="none" stroke="#151d39" stroke-linecap="round" stroke-miterlimit="10" stroke-width="3"/><path d="m1309 922.1-12.7-22.5" fill="none" stroke="#151d39" stroke-linecap="round" stroke-miterlimit="10" stroke-width="3"/><g opacity=".46"><circle cx="1120" cy="833.8" fill="#fff" r="47.1"/><circle cx="1120" cy="833.8" fill="none" opacity=".43" r="37" stroke="#c9c9c9" stroke-miterlimit="10" stroke-width="3"/></g><g opacity=".46"><circle cx="1224.2" cy="833.8" fill="#fff" r="47.1"/><circle cx="1224.2" cy="833.8" fill="none" opacity=".43" r="37" stroke="#c9c9c9" stroke-miterlimit="10" stroke-width="3"/></g><circle cx="1098.7" cy="833.8" fill="#fff" r="47.1"/><circle cx="1098.7" cy="833.8" fill="none" opacity=".43" r="37" stroke="#c9c9c9" stroke-miterlimit="10" stroke-width="3"/><circle cx="1242.8" cy="833.8" fill="#fff" r="47.1"/><circle cx="1242.8" cy="833.8" fill="none" opacity=".43" r="37" stroke="#c9c9c9" stroke-miterlimit="10" stroke-width="3"/><path d="m1287.9 882.4h-232.1l-8.3-37.1h246.7z" style="fill:none;stroke:#c9c9c9;stroke-width:3;stroke-linecap:round;stroke-linejoin:round;stroke-miterlimit:10"/><path d="m1138.5 739.6c0-10.9-8.9-19.8-19.8-19.8-1.1 0-2.1.1-3.2.3-2.1-4.7-5-8.8-9-11.4l-24.6.2c-14.4 10.2-14.4 38.4-14.4 50.5h51.1l2.6-.2c9.8-1.3 17.3-9.6 17.3-19.6zm-17.2 12.3c-.2-7.3-.8-16.5-3.2-24.9h.7c6.9 0 12.6 5.6 12.6 12.6 0 6-4.4 11.1-10.1 12.3z" fill="#fff"/><path d="m1217.4 739.6c0-10.9-8.9-19.8-19.8-19.8-1.1 0-2.1.1-3.2.3-2.1-4.7-5-8.8-9-11.4l-24.6.2c-14.4 10.2-14.4 38.4-14.4 50.5h51.1s0 0 0 0l2.6-.2c9.8-1.3 17.3-9.6 17.3-19.6zm-17.3 12.3c-.2-7.3-.8-16.5-3.2-24.9h.7c6.9 0 12.6 5.6 12.6 12.6 0 6-4.4 11.1-10.1 12.3z" fill="#fff"/><path d="m1230.2 700.7h29.9l3.7 33.5 1.7 3.5 3 21.1h-47.4l3.3-21.1 1.5-3.5z" fill="#fff"/><path d="m1254.5 731.2-3.4-25.4" style="opacity:.5;fill:none;stroke:#c9c9c9;stroke-width:3;stroke-linecap:round;stroke-miterlimit:10"/><path d="m1233.8 731.2 3.3-25.4" style="opacity:.5;fill:none;stroke:#c9c9c9;stroke-width:3;stroke-linecap:round;stroke-miterlimit:10"/><path d="m1244.3 731.4v-25.8" style="opacity:.5;fill:none;stroke:#c9c9c9;stroke-width:3;stroke-linecap:round;stroke-miterlimit:10"/><path d="m1287.9 760.3h-232.1l-8.3-37.1h246.7z" style="fill:none;stroke:#c9c9c9;stroke-width:3;stroke-linecap:round;stroke-linejoin:round;stroke-miterlimit:10"/><path d="m1239.7 665.2h-98.1c-6.6 0-12-5.4-12-12v-4.7c0-6.6 5.4-12 12-12h98.1c6.6 0 12 5.4 12 12v4.7c0 6.6-5.4 12-12 12z" fill="#eee"/><circle cx="1102.2" cy="650.9" fill="#eee" r="14.5"/><circle cx="1059.4" cy="650.9" fill="#eee" r="14.5"/><circle cx="1282.4" cy="650.9" fill="#eee" r="14.5"/><path d="m1207.9 657.6 13.5-13.5" fill="none" stroke="#808080" stroke-linecap="round" stroke-miterlimit="10" stroke-width="4"/><path d="m1224.9 657.7 13.4-13.5" fill="none" stroke="#808080" stroke-linecap="round" stroke-miterlimit="10" stroke-width="4"/><path d="m1284.3 649-10.7 10.7" fill="none" stroke="#808080" stroke-linecap="round" stroke-miterlimit="10" stroke-width="4"/><path d="m1140.6 643.9h55.4" fill="none" stroke="#808080" stroke-linecap="round" stroke-miterlimit="10" stroke-width="3"/><path d="m1140.6 650.9h55.4" fill="none" stroke="#808080" stroke-linecap="round" stroke-miterlimit="10" stroke-width="3"/><path d="m1140.6 657.8h55.4" fill="none" stroke="#808080" stroke-linecap="round" stroke-miterlimit="10" stroke-width="3"/><circle cx="1102.2" cy="650.9" fill="#c9c9c9" r="7"/><circle cx="1282.3" cy="650.9" fill="#c9c9c9" r="7"/><circle cx="1059.4" cy="650.9" fill="#c9c9c9" r="7"/><path d="m1374.9 731.4s-12 3-14.9 5.8c-3.1 3-6.6 15.7-6.6 15.7s-4.1-11.6-6.9-14.4c-2.6-2.6-14.6-7.2-14.6-7.2s11.8-5.3 14.6-8.1c2.6-2.6 6.9-13.5 6.9-13.5s4.4 11 7.4 13.9c2.3 2.6 14.1 7.8 14.1 7.8z" fill="#fff"/><path d="m1398.3 775.3s-10 2.5-12.4 4.9c-2.6 2.5-5.5 13.1-5.5 13.1s-3.5-9.7-5.8-12c-2.2-2.2-12.2-6-12.2-6s9.9-4.4 12.2-6.7c2.2-2.2 5.8-11.2 5.8-11.2s3.7 9.2 6.2 11.7c1.9 1.9 11.7 6.2 11.7 6.2z" fill="#fff"/><path d="m1360.6 805s-8.9 2.3-11 4.3c-2.3 2.2-4.9 11.6-4.9 11.6s-3.1-8.6-5.1-10.6c-1.9-1.9-10.8-5.3-10.8-5.3s8.8-3.9 10.8-6c1.9-1.9 5.1-10 5.1-10s3.2 8.1 5.5 10.3c1.7 1.8 10.4 5.7 10.4 5.7z" fill="#fff"/><path d="m962.2 731.4s12 3 14.9 5.8c3.1 3 6.6 15.7 6.6 15.7s4.1-11.6 6.9-14.4c2.6-2.6 14.6-7.2 14.6-7.2s-11.8-5.3-14.6-8.1c-2.6-2.6-6.9-13.5-6.9-13.5s-4.4 11-7.4 13.9c-2.3 2.6-14.1 7.8-14.1 7.8z" fill="#fff"/><path d="m944 771.1s10.2 2.6 12.6 4.9c2.6 2.5 5.6 13.3 5.6 13.3s3.5-9.8 5.8-12.1c2.2-2.2 12.4-6.1 12.4-6.1s-10-4.5-12.4-6.8c-2.2-2.2-5.8-11.4-5.8-11.4s-3.7 9.3-6.2 11.8c-2 2-12 6.4-12 6.4z" fill="#fff"/><path d="m982 796.8s8.9 2.2 11 4.3c2.3 2.2 4.9 11.6 4.9 11.6s3.1-8.6 5.1-10.6c1.9-1.9 10.8-5.3 10.8-5.3s-8.8-3.9-10.8-6c-1.9-1.9-5.1-9.9-5.1-9.9s-3.2 8.1-5.4 10.3c-1.8 1.8-10.5 5.6-10.5 5.6z" fill="#fff"/><path d="m903.6 697.6h28.1" fill="none" stroke="#d8e2fa" stroke-linecap="round" stroke-miterlimit="10" stroke-width="6"/><path d="m931.7 669.5v28.1" fill="none" stroke="#d8e2fa" stroke-linecap="round" stroke-miterlimit="10" stroke-width="6"/><g fill="#eee"><path d="m1127.5 531.7c-4.7 0-8.4-1.5-11.2-4.4s-4.1-7-4.1-12.3c0-5 1.4-8.9 4.3-11.9s6.6-4.5 11.3-4.5c3.8 0 7 .9 9.6 2.6l-1.9 4.5c-2.5-1.5-5-2.3-7.6-2.3-3 0-5.3 1.1-7 3.2s-2.6 5-2.6 8.6c0 3.7.8 6.6 2.5 8.6s4 3.1 7.1 3.1c2.7 0 5.4-.7 8-2l.8 4.7c-2.4 1.4-5.5 2.1-9.2 2.1z"/><path d="m1149.9 531.6c-1.7 0-3-.2-4.1-.6s-2-1-2.6-1.9-1.1-1.9-1.3-3-.4-2.6-.4-4.4v-23.5l5.8-.4v23.8c0 2.2.3 3.6.8 4.4s1.5 1.2 3 1.2c.7 0 1.7-.1 2.8-.2l.2 4.1s-.2 0-.5.1-.7.1-1 .2-.7.1-1.2.2c-.6-.1-1.1 0-1.5 0z"/><path d="m1167.9 531.7c-3.9 0-6.9-1.1-9.1-3.4-2.2-2.2-3.2-5.3-3.2-9.3 0-3.8 1-6.9 3.1-9.2 2-2.3 4.8-3.4 8.3-3.4 3.3 0 5.9 1 7.7 3.1s2.8 4.8 2.8 8.3v1.2 1.2h-16.1c.1 2.3.7 4 1.9 5.2s2.8 1.9 4.9 1.9c2.6 0 5.2-.7 7.6-2.1l.8 4.1c-2.5 1.7-5.4 2.4-8.7 2.4zm-6.4-15h10.5c0-2-.4-3.5-1.3-4.5-.9-1.1-2.1-1.6-3.7-1.6-1.5 0-2.7.5-3.7 1.5-1.1 1.1-1.7 2.6-1.8 4.6z"/><path d="m1188.4 531.7c-2.2 0-4.1-.6-5.4-1.9-1.4-1.2-2.1-3-2.1-5.4 0-2.5.8-4.4 2.5-5.6 1.6-1.2 4.1-2 7.4-2.3.5-.1.9-.1 1.5-.2s1.1-.1 1.8-.2 1.2-.1 1.6-.2v-1.3c0-1.5-.3-2.5-1-3.2s-1.7-1-3.1-1c-2 0-4.4.5-7.3 1.6 0 0-.3-.7-.7-2s-.7-1.9-.7-2c2.8-1.2 5.9-1.8 9.2-1.8s5.6.7 7.1 2.1 2.2 3.7 2.2 6.9v15.8h-4.3c0-.1-.2-.5-.5-1.5-.3-.9-.5-1.4-.5-1.5-1.2 1.2-2.4 2-3.5 2.6-1.1.8-2.5 1.1-4.2 1.1zm1.6-4.1c1.3 0 2.5-.3 3.5-1 1-.6 1.7-1.4 2.1-2.3v-4.7s-.4 0-1.2.1c-.7.1-1.1.1-1.2.1-2.3.2-4 .6-5.1 1.3s-1.6 1.8-1.6 3.3c0 1 .3 1.8.9 2.4.6.5 1.5.8 2.6.8z"/><path d="m1207.2 531.2v-24.1h4.6l.6 3.1c2.5-2.4 5.2-3.6 8.2-3.6 2.8 0 4.9.8 6.3 2.4s2.1 4 2.1 7v15.3h-5.8v-14.6c0-1.9-.3-3.4-.9-4.4s-1.7-1.5-3.3-1.5c-1.2 0-2.4.3-3.4 1-1 .6-1.8 1.4-2.3 2.4-.3 1.1-.4 2.9-.4 5.3v11.8h-5.7z"/><path d="m1109.6 585.2v-32.2h9.3c2.8 0 5.3.3 7.6 1 2.2.6 4.1 1.6 5.7 2.9s2.8 3 3.7 5 1.3 4.4 1.3 7.1c0 5.2-1.6 9.2-4.7 12s-7.5 4.2-13 4.2zm6-4.7h4.3c3.7 0 6.5-1 8.4-2.9s2.9-4.7 2.9-8.4c0-4-1-6.8-3-8.6s-5-2.7-8.9-2.7h-3.6v22.6z"/><path d="m1142.4 557.6v-4.9h5.8v4.9zm0 27.6v-24.1h5.8v24.1z"/><path d="m1161.9 585.7c-3.6 0-6.4-.6-8.5-1.8l.6-4.3c1 .5 2.2 1 3.7 1.4s2.9.6 4.1.6c1.3 0 2.3-.2 3-.7s1.1-1.2 1.1-2.1c0-.8-.3-1.5-1-2s-1.9-1.1-3.8-1.8c-.6-.2-1.1-.4-1.3-.5-2.2-.9-3.8-1.8-4.8-2.9s-1.5-2.5-1.5-4.3c0-2.2.8-3.9 2.4-5.1s3.8-1.8 6.6-1.8c3.1 0 5.8.6 8.1 1.7l-1.4 4c-2.3-1.1-4.5-1.6-6.6-1.6-1.2 0-2.1.2-2.7.6-.7.4-1 1-1 1.8 0 .7.3 1.3.9 1.7s1.9 1 3.7 1.6c.1 0 .2.1.6.2s.6.2.7.3c2.2.8 3.8 1.8 4.9 2.9 1 1.1 1.6 2.6 1.6 4.4 0 2.4-.8 4.3-2.5 5.6-1.6 1.4-3.9 2.1-6.9 2.1z"/><path d="m1175.8 585.2v-33l5.8-.4v7c0 .3 0 1.3-.1 2.8 0 1.5-.1 2.3-.1 2.3 1.9-2.3 4.5-3.4 7.7-3.4 2.7 0 4.8.8 6.3 2.3s2.2 3.9 2.2 7.1v15.3h-5.8v-14.7c0-2-.3-3.4-.9-4.3s-1.7-1.4-3.2-1.4c-1.3 0-2.4.3-3.4 1s-1.7 1.5-2.2 2.5c-.4 1.3-.5 3.1-.5 5.3v11.6z"/><path d="m1214.5 585.7c-3.9 0-6.9-1.1-9.1-3.4-2.2-2.2-3.2-5.3-3.2-9.3 0-3.8 1-6.9 3.1-9.2s4.8-3.4 8.3-3.4c3.3 0 5.9 1 7.7 3.1s2.8 4.8 2.8 8.3v1.2 1.2h-16.1c.1 2.3.7 4 1.9 5.2s2.8 1.9 4.9 1.9c2.6 0 5.2-.7 7.6-2.1l.8 4.1c-2.4 1.7-5.3 2.4-8.7 2.4zm-6.4-15h10.5c0-2-.4-3.5-1.3-4.5s-2.1-1.6-3.7-1.6c-1.5 0-2.7.5-3.7 1.5-1 1.1-1.6 2.6-1.8 4.6z"/><path d="m1236.5 585.7c-3.6 0-6.4-.6-8.5-1.8l.6-4.3c1 .5 2.2 1 3.7 1.4s2.9.6 4.1.6c1.3 0 2.3-.2 3-.7s1.1-1.2 1.1-2.1c0-.8-.3-1.5-1-2s-1.9-1.1-3.8-1.8c-.6-.2-1.1-.4-1.3-.5-2.2-.9-3.8-1.8-4.8-2.9s-1.5-2.5-1.5-4.3c0-2.2.8-3.9 2.4-5.1s3.8-1.8 6.6-1.8c3.1 0 5.8.6 8.1 1.7l-1.4 4c-2.3-1.1-4.5-1.6-6.6-1.6-1.2 0-2.1.2-2.7.6-.7.4-1 1-1 1.8 0 .7.3 1.3.9 1.7s1.9 1 3.7 1.6c.1 0 .2.1.6.2s.6.2.7.3c2.2.8 3.8 1.8 4.9 2.9 1 1.1 1.6 2.6 1.6 4.4 0 2.4-.8 4.3-2.5 5.6-1.6 1.4-3.9 2.1-6.9 2.1z"/><path d="m1074.6 1094.3v-32.3h10.7c2.5 0 4.7.3 6.5 1s3.2 1.7 4.3 3.2c1 1.5 1.6 3.3 1.6 5.5 0 1.5-.2 2.9-.6 4.1s-1 2.3-2 3.3c-.9 1-2.2 1.7-3.8 2.3-1.6.5-3.6.8-6 .8-2 0-3.6-.1-4.9-.2v12.4h-5.8zm10.1-16.5c1.2 0 2.3-.1 3.2-.4.9-.2 1.6-.5 2.1-.9s.9-.8 1.2-1.4c.3-.5.5-1.1.6-1.6s.1-1.1.1-1.7c0-1.8-.6-3.1-1.7-4s-2.8-1.4-4.8-1.4h-4.9v11.3c.1.1 1.5.1 4.2.1z"/><path d="m1119 1092.4c-1.9 1.6-4.4 2.4-7.6 2.4s-5.7-.8-7.6-2.4-2.9-3.9-2.9-6.9v-15.4h5.8v15.1c0 1.8.4 3.1 1.1 3.9.8.8 2 1.2 3.6 1.2s2.8-.4 3.5-1.2 1.1-2.1 1.1-3.9v-15.1h5.8v15.4c0 3.1-.9 5.4-2.8 6.9z"/><path d="m1136.7 1094.7c-1.6 0-3-.2-4.1-.6s-1.9-1-2.6-1.8c-.6-.8-1.1-1.8-1.3-3-.3-1.1-.4-2.5-.4-4.2v-11.4h-4l.2-3.1 4.1-.4 1.8-6.5h3.5v6.6h6v3.5h-6v11.5c0 1.8.3 3.1.8 3.9s1.5 1.2 2.9 1.2c.8 0 1.7-.1 2.7-.2l.2 4.1s-.2 0-.5.1-.6.1-.9.2-.7.1-1.2.1-.8 0-1.2 0z"/><path d="m1153.6 1094.3 11.8-32.2h6.5l11.7 32.2h-6.1l-3.2-9.1h-11.3l-3.2 9.1zm10.9-13.5h8.3c-2.6-8.5-4-12.8-4.1-13.1z"/><path d="m1191 1094.3-7.3-24.1h5.9l4.6 17.7c.1-.3.9-3.2 2.5-8.6s2.5-8.4 2.7-9.1h5.9c.2.6 1 3.6 2.5 9s2.3 8.3 2.4 8.7l4.8-17.6h5.8l-7.6 24.1h-5.7c-.2-.6-1.1-3.8-2.7-9.6-1.6-5.7-2.5-8.8-2.6-9.3-.3 1.1-1.2 4.3-2.8 9.7s-2.5 8.4-2.7 9.2h-5.7z"/><path d="m1230.2 1094.8c-2.2 0-4.1-.6-5.4-1.9-1.4-1.2-2.1-3-2.1-5.4 0-2.5.8-4.4 2.5-5.6 1.6-1.2 4.1-2 7.4-2.3.5-.1.9-.1 1.5-.2s1.1-.1 1.8-.2 1.2-.1 1.6-.2v-1.3c0-1.5-.3-2.5-1-3.2s-1.7-1-3.1-1c-2 0-4.4.5-7.3 1.6 0 0-.3-.7-.7-2s-.7-1.9-.7-2c2.8-1.2 5.9-1.8 9.2-1.8s5.6.7 7.1 2.1 2.2 3.7 2.2 6.9v15.8h-4.3c0-.1-.2-.5-.5-1.5-.3-.9-.5-1.4-.5-1.5-1.2 1.2-2.4 2-3.5 2.6-1.2.8-2.6 1.1-4.2 1.1zm1.5-4.1c1.3 0 2.5-.3 3.5-1 1-.6 1.7-1.4 2.1-2.3v-4.7s-.4 0-1.2.1c-.7.1-1.1.1-1.2.1-2.3.2-4 .6-5.1 1.3s-1.6 1.8-1.6 3.3c0 1 .3 1.8.9 2.4.7.5 1.5.8 2.6.8z"/><path d="m1250.2 1104.5c-.9 0-1.9-.1-3-.2l-.3-4.5c.7.1 1.5.1 2.6.1 1.3 0 2.4-.3 3.2-.8s1.5-1.5 2-2.8c.1-.1.4-1 .9-2.5l-9.7-23.7h6.2l6.4 17.5c.5-1.7 1.5-5 3.2-9.7 1.6-4.7 2.5-7.3 2.7-7.8h6.2c-6.7 17.7-10.1 26.6-10.1 26.8-1 2.7-2.4 4.6-3.9 5.8-1.9 1.2-3.9 1.8-6.4 1.8z"/><path d="m1103.7 1148.3v-32.2h9.3c2.8 0 5.3.3 7.6 1 2.2.6 4.1 1.6 5.7 2.9s2.8 3 3.7 5 1.3 4.4 1.3 7.1c0 5.2-1.6 9.2-4.7 12s-7.5 4.2-13 4.2zm5.9-4.7h4.3c3.7 0 6.5-1 8.4-2.9s2.9-4.7 2.9-8.4c0-4-1-6.8-3-8.6s-5-2.7-8.9-2.7h-3.6v22.6z"/><path d="m1136.5 1120.7v-4.9h5.8v4.9zm0 27.6v-24.1h5.8v24.1z"/><path d="m1156 1148.8c-3.6 0-6.4-.6-8.5-1.8l.6-4.3c1 .5 2.2 1 3.7 1.4s2.9.6 4.1.6c1.3 0 2.3-.2 3-.7s1.1-1.2 1.1-2.1c0-.8-.3-1.5-1-2s-1.9-1.1-3.8-1.8c-.6-.2-1.1-.4-1.3-.5-2.2-.9-3.8-1.8-4.8-2.9s-1.5-2.5-1.5-4.3c0-2.2.8-3.9 2.4-5.1s3.8-1.8 6.6-1.8c3.1 0 5.8.6 8.1 1.7l-1.4 4c-2.3-1.1-4.5-1.6-6.6-1.6-1.2 0-2.1.2-2.7.6-.7.4-1 1-1 1.8 0 .7.3 1.3.9 1.7s1.9 1 3.7 1.6c.1 0 .2.1.6.2s.6.2.7.3c2.2.8 3.8 1.8 4.9 2.9 1 1.1 1.6 2.6 1.6 4.4 0 2.4-.8 4.3-2.5 5.6-1.6 1.4-3.9 2.1-6.9 2.1z"/><path d="m1169.9 1148.3v-33l5.8-.4v7c0 .3 0 1.3-.1 2.8 0 1.5-.1 2.3-.1 2.3 1.9-2.3 4.5-3.4 7.7-3.4 2.7 0 4.8.8 6.3 2.3s2.2 3.9 2.2 7.1v15.3h-5.8v-14.7c0-2-.3-3.4-.9-4.3s-1.7-1.4-3.2-1.4c-1.3 0-2.4.3-3.4 1s-1.7 1.5-2.2 2.5c-.4 1.3-.5 3.1-.5 5.3v11.6z"/><path d="m1208.6 1148.8c-3.9 0-6.9-1.1-9.1-3.4-2.2-2.2-3.2-5.3-3.2-9.3 0-3.8 1-6.9 3.1-9.2s4.8-3.4 8.3-3.4c3.3 0 5.9 1 7.7 3.1s2.8 4.8 2.8 8.3v1.2 1.2h-16.1c.1 2.3.7 4 1.9 5.2s2.8 1.9 4.9 1.9c2.6 0 5.2-.7 7.6-2.1l.8 4.1c-2.5 1.6-5.4 2.4-8.7 2.4zm-6.4-15h10.5c0-2-.4-3.5-1.3-4.5s-2.1-1.6-3.7-1.6c-1.5 0-2.7.5-3.7 1.5-1.1 1.1-1.7 2.6-1.8 4.6z"/><path d="m1230.6 1148.8c-3.6 0-6.4-.6-8.5-1.8l.6-4.3c1 .5 2.2 1 3.7 1.4s2.9.6 4.1.6c1.3 0 2.3-.2 3-.7s1.1-1.2 1.1-2.1c0-.8-.3-1.5-1-2s-1.9-1.1-3.8-1.8c-.6-.2-1.1-.4-1.3-.5-2.2-.9-3.8-1.8-4.8-2.9s-1.5-2.5-1.5-4.3c0-2.2.8-3.9 2.4-5.1s3.8-1.8 6.6-1.8c3.1 0 5.8.6 8.1 1.7l-1.4 4c-2.3-1.1-4.5-1.6-6.6-1.6-1.2 0-2.1.2-2.7.6-.7.4-1 1-1 1.8 0 .7.3 1.3.9 1.7s1.9 1 3.7 1.6c.1 0 .2.1.6.2s.6.2.7.3c2.2.8 3.8 1.8 4.9 2.9 1 1.1 1.6 2.6 1.6 4.4 0 2.4-.8 4.3-2.5 5.6-1.6 1.4-3.9 2.1-6.9 2.1z"/><path d="m179.8 532.4v-32.2h9.3c2.8 0 5.3.3 7.6 1 2.2.6 4.1 1.6 5.7 2.9s2.8 3 3.7 5 1.3 4.4 1.3 7.1c0 5.2-1.6 9.2-4.7 12s-7.5 4.2-13 4.2zm6-4.7h4.3c3.7 0 6.5-1 8.4-2.9s2.9-4.7 2.9-8.4c0-4-1-6.8-3-8.6s-5-2.7-8.9-2.7h-3.6v22.6z"/><path d="m212.7 504.8v-4.9h5.8v4.9zm0 27.6v-24.1h5.8v24.1z"/><path d="m224.4 532.4v-24.1h4.8l.7 3.7c1.6-2.5 3.9-3.8 6.9-3.8.6 0 1.1 0 1.5.1l-.1 4.8c-.6-.1-1.2-.1-1.8-.1-2.1 0-3.7.6-4.8 1.7-1 1.1-1.6 2.7-1.6 4.7v13.1h-5.6z"/><path d="m251.6 532.8c-1.6 0-3-.2-4.1-.6s-1.9-1-2.6-1.8c-.6-.8-1.1-1.8-1.3-3-.3-1.1-.4-2.5-.4-4.2v-11.4h-4l.2-3.1 4.1-.4 1.8-6.5h3.5v6.6h6v3.5h-6v11.5c0 1.8.3 3.1.8 3.9s1.5 1.2 2.9 1.2c.8 0 1.7-.1 2.7-.2l.2 4.1s-.2 0-.5.1-.6.1-.9.2-.7.1-1.2.1-.8 0-1.2 0z"/><path d="m260.9 542.6c-.9 0-1.9-.1-3-.2l-.3-4.5c.7.1 1.5.1 2.6.1 1.3 0 2.4-.3 3.2-.8s1.5-1.5 2-2.8c.1-.1.4-1 .9-2.5l-9.7-23.7h6.2l6.4 17.5c.5-1.7 1.5-5 3.2-9.7 1.6-4.7 2.5-7.3 2.7-7.8h6.2c-6.7 17.7-10.1 26.6-10.1 26.8-1 2.7-2.4 4.6-3.9 5.8-1.9 1.2-3.9 1.8-6.4 1.8z"/><path d="m296.6 532.4v-32.2h9.3c2.8 0 5.3.3 7.6 1 2.2.6 4.1 1.6 5.7 2.9s2.8 3 3.7 5 1.3 4.4 1.3 7.1c0 5.2-1.6 9.2-4.7 12s-7.5 4.2-13 4.2zm5.9-4.7h4.3c3.7 0 6.5-1 8.4-2.9s2.9-4.7 2.9-8.4c0-4-1-6.8-3-8.6s-5-2.7-8.9-2.7h-3.6v22.6z"/><path d="m329.4 504.8v-4.9h5.8v4.9zm0 27.6v-24.1h5.8v24.1z"/><path d="m348.9 532.9c-3.6 0-6.4-.6-8.5-1.8l.6-4.3c1 .5 2.2 1 3.7 1.4s2.9.6 4.1.6c1.3 0 2.3-.2 3-.7s1.1-1.2 1.1-2.1c0-.8-.3-1.5-1-2s-1.9-1.1-3.8-1.8c-.6-.2-1.1-.4-1.3-.5-2.2-.9-3.8-1.8-4.8-2.9s-1.5-2.5-1.5-4.3c0-2.2.8-3.9 2.4-5.1s3.8-1.8 6.6-1.8c3.1 0 5.8.6 8.1 1.7l-1.4 4c-2.3-1.1-4.5-1.6-6.6-1.6-1.2 0-2.1.2-2.7.6-.7.4-1 1-1 1.8 0 .7.3 1.3.9 1.7s1.9 1 3.7 1.6c.1 0 .2.1.6.2s.6.2.7.3c2.2.8 3.8 1.8 4.9 2.9 1 1.1 1.6 2.6 1.6 4.4 0 2.4-.8 4.3-2.5 5.6-1.6 1.4-3.9 2.1-6.9 2.1z"/><path d="m362.8 532.4v-33l5.8-.4v7c0 .3 0 1.3-.1 2.8 0 1.5-.1 2.3-.1 2.3 1.9-2.3 4.5-3.4 7.7-3.4 2.7 0 4.8.8 6.3 2.3s2.2 3.9 2.2 7.1v15.3h-5.8v-14.7c0-2-.3-3.4-.9-4.3s-1.7-1.4-3.2-1.4c-1.3 0-2.4.3-3.4 1s-1.7 1.5-2.2 2.5c-.4 1.3-.5 3.1-.5 5.3v11.6z"/><path d="m401.5 532.9c-3.9 0-6.9-1.1-9.1-3.4-2.2-2.2-3.2-5.3-3.2-9.3 0-3.8 1-6.9 3.1-9.2 2-2.3 4.8-3.4 8.3-3.4 3.3 0 5.9 1 7.7 3.1s2.8 4.8 2.8 8.3v1.2 1.2h-16.1c.1 2.3.7 4 1.9 5.2s2.8 1.9 4.9 1.9c2.6 0 5.2-.7 7.6-2.1l.8 4.1c-2.5 1.6-5.4 2.4-8.7 2.4zm-6.4-15h10.5c0-2-.4-3.5-1.3-4.5s-2.1-1.6-3.7-1.6c-1.5 0-2.7.5-3.7 1.5-1.1 1.1-1.7 2.6-1.8 4.6z"/><path d="m423.5 532.9c-3.6 0-6.4-.6-8.5-1.8l.6-4.3c1 .5 2.2 1 3.7 1.4s2.9.6 4.1.6c1.3 0 2.3-.2 3-.7s1.1-1.2 1.1-2.1c0-.8-.3-1.5-1-2s-1.9-1.1-3.8-1.8c-.6-.2-1.1-.4-1.3-.5-2.2-.9-3.8-1.8-4.8-2.9s-1.5-2.5-1.5-4.3c0-2.2.8-3.9 2.4-5.1s3.8-1.8 6.6-1.8c3.1 0 5.8.6 8.1 1.7l-1.4 4c-2.3-1.1-4.5-1.6-6.6-1.6-1.2 0-2.1.2-2.7.6-.7.4-1 1-1 1.8 0 .7.3 1.3.9 1.7s1.9 1 3.7 1.6c.1 0 .2.1.6.2s.6.2.7.3c2.2.8 3.8 1.8 4.9 2.9 1 1.1 1.6 2.6 1.6 4.4 0 2.4-.8 4.3-2.5 5.6-1.6 1.4-4 2.1-6.9 2.1z"/><path d="m214.7 586.4v-32.2h6.3c1.1 1.8 3.5 5.4 7 10.8s5.6 8.7 6.4 9.9c.2.3.6.9 1.1 1.7s.9 1.4 1.1 1.7c-.1-5-.2-7.6-.2-7.8v-16.3h5.4v32.2h-6.4l-14.4-22.6-1.1-1.7c.1 3.9.2 6.6.2 8.2v16.2h-5.4z"/><path d="m258.7 586.9c-3.6 0-6.4-1.2-8.4-3.5s-3.1-5.4-3.1-9.1c0-3.9 1-7 3.1-9.2s4.9-3.4 8.7-3.4c3.6 0 6.4 1.1 8.5 3.4 2 2.3 3.1 5.3 3.1 9.2s-1 6.9-3.1 9.2c-2.2 2.2-5.1 3.4-8.8 3.4zm.2-4.4c1.9 0 3.4-.7 4.4-2.1s1.5-3.5 1.5-6.1c0-2.7-.5-4.7-1.5-6.1s-2.5-2.1-4.4-2.1-3.4.7-4.4 2.1-1.5 3.5-1.5 6.1.5 4.7 1.5 6.1c.9 1.4 2.4 2.1 4.4 2.1z"/><path d="m296.7 586.9c-3.9 0-7.4-.9-10.4-2.7l1.5-4.7c1.4.8 2.9 1.4 4.5 1.8 1.6.5 3.2.7 4.7.7 1.9 0 3.3-.4 4.3-1.2s1.4-2 1.4-3.5c0-2-1.3-3.4-4-4.2-.2-.1-.7-.2-1.6-.5s-1.7-.5-2.5-.7-1.3-.4-1.7-.6c-4.3-1.5-6.5-4.4-6.5-8.5 0-2.9 1-5.2 3.1-6.7 2.1-1.6 4.8-2.4 8.3-2.4 3.9 0 7.2.8 10 2.4l-1.8 4.4c-2.9-1.3-5.5-1.9-8-1.9-1.8 0-3.1.3-4 .9s-1.4 1.7-1.4 3.1c0 1.8.9 3 2.7 3.5.4.1 1.2.4 2.6.9s2.3.7 2.7.9c2.9 1 5 2.2 6.3 3.6s1.9 3.4 1.9 6c0 3.1-1.1 5.4-3.3 7.1-2.2 1.4-5.2 2.3-8.8 2.3z"/><path d="m323.6 586.9c-3.6 0-6.4-1.2-8.4-3.5s-3.1-5.4-3.1-9.1c0-3.9 1-7 3.1-9.2s4.9-3.4 8.7-3.4c3.6 0 6.4 1.1 8.5 3.4 2 2.3 3.1 5.3 3.1 9.2s-1 6.9-3.1 9.2c-2.2 2.2-5.1 3.4-8.8 3.4zm.1-4.4c1.9 0 3.4-.7 4.4-2.1s1.5-3.5 1.5-6.1c0-2.7-.5-4.7-1.5-6.1s-2.5-2.1-4.4-2.1-3.4.7-4.4 2.1-1.5 3.5-1.5 6.1.5 4.7 1.5 6.1 2.5 2.1 4.4 2.1z"/><path d="m346.3 586.9c-2.2 0-4.1-.6-5.4-1.9-1.4-1.2-2.1-3-2.1-5.4 0-2.5.8-4.4 2.5-5.6 1.6-1.2 4.1-2 7.4-2.3.5-.1.9-.1 1.5-.2s1.1-.1 1.8-.2 1.2-.1 1.6-.2v-1.1c0-1.5-.3-2.5-1-3.2s-1.7-1-3.1-1c-2 0-4.4.5-7.3 1.6 0 0-.3-.7-.7-2s-.7-1.9-.7-2c2.8-1.2 5.9-1.8 9.2-1.8s5.6.7 7.1 2.1 2.2 3.7 2.2 6.9v15.8h-4.3c0-.1-.2-.5-.5-1.5-.3-.9-.5-1.4-.5-1.5-1.2 1.2-2.4 2-3.5 2.6s-2.5.9-4.2.9zm1.6-4.1c1.3 0 2.5-.3 3.5-1 1-.6 1.7-1.4 2.1-2.3v-4.7s-.4 0-1.2.1c-.7.1-1.1.1-1.2.1-2.3.2-4 .6-5.1 1.3s-1.6 1.8-1.6 3.3c0 1 .3 1.8.9 2.4.6.5 1.5.8 2.6.8z"/><path d="m365.1 596.5v-34.2h4.9l.6 3.4c.8-1.3 1.8-2.3 3.2-3 1.3-.7 2.8-1 4.4-1 2 0 3.7.5 5.2 1.6s2.6 2.6 3.4 4.5 1.2 4 1.2 6.4c0 3.7-.9 6.8-2.7 9.1-1.8 2.4-4.3 3.5-7.4 3.5-1.5 0-2.9-.3-4.1-.9s-2.3-1.4-3.1-2.5c.1 2.1.2 3.3.2 3.6v9.1zm11.6-14c1.7 0 3.1-.7 4.1-2.2 1-1.4 1.5-3.5 1.5-6.2s-.5-4.7-1.5-6.1-2.4-2-4.2-2c-3.8 0-5.7 2.6-5.8 7.8 0 3 .5 5.2 1.5 6.6.9 1.4 2.4 2.1 4.4 2.1z"/><path d="m394.7 586.8c-1 0-1.8-.3-2.4-1-.7-.7-1-1.4-1-2.4 0-.9.3-1.7 1-2.4s1.5-1 2.4-1 1.7.3 2.4 1 1 1.5 1 2.4-.3 1.7-1 2.4-1.5 1-2.4 1zm-.7-10.2-1.9-15.7v-6.5h5.3v6.5l-2 15.7z"/><path d="m136.4 1094.8v-32.3h11.9c1.6 0 3 .1 4.2.2s2.3.4 3.4.8 1.9.9 2.6 1.6 1.2 1.5 1.6 2.6.6 2.3.6 3.8c0 4.3-1.9 7.1-5.8 8.4.8.9 1.8 2.5 2.9 5l4.8 9.9h-6.5l-3.8-8.4c-1.4-3-2.3-4.8-2.6-5.4-.2 0-1.1 0-2.5 0h-5v13.8zm12.4-18.1c2.3 0 3.9-.4 4.9-1.2s1.5-2.1 1.5-3.9c0-1.6-.5-2.7-1.5-3.5-1-.7-2.6-1.1-4.6-1.1h-6.8v9.7h3.3z"/><path d="m184 1092.9c-1.9 1.6-4.4 2.4-7.6 2.4s-5.7-.8-7.6-2.4-2.9-3.9-2.9-6.9v-15.4h5.8v15.1c0 1.8.4 3.1 1.1 3.9.8.8 2 1.2 3.6 1.2s2.8-.4 3.5-1.2 1.1-2.1 1.1-3.9v-15.1h5.8v15.4c.1 3.1-.9 5.4-2.8 6.9z"/><path d="m192.2 1094.8v-24.1h4.6l.6 3.1c2.5-2.4 5.2-3.6 8.2-3.6 2.8 0 4.9.8 6.3 2.4s2.1 4 2.1 7v15.3h-5.8v-14.6c0-1.9-.3-3.4-.9-4.4s-1.7-1.5-3.3-1.5c-1.2 0-2.4.3-3.4 1-1 .6-1.8 1.4-2.3 2.4-.3 1.1-.4 2.9-.4 5.3v11.8h-5.7z"/><path d="m232.2 1094.8v-32.2h9.3c2.8 0 5.3.3 7.6 1 2.2.6 4.1 1.6 5.7 2.9s2.8 3 3.7 5 1.3 4.4 1.3 7.1c0 5.2-1.6 9.2-4.7 12s-7.5 4.2-13 4.2zm5.9-4.7h4.3c3.7 0 6.5-1 8.4-2.9s2.9-4.7 2.9-8.4c0-4-1-6.8-3-8.6s-5-2.7-8.9-2.7h-3.6v22.6z"/><path d="m265 1067.2v-4.9h5.8v4.9zm0 27.6v-24.1h5.8v24.1z"/><path d="m284.5 1095.3c-3.6 0-6.4-.6-8.5-1.8l.6-4.3c1 .5 2.2 1 3.7 1.4s2.9.6 4.1.6c1.3 0 2.3-.2 3-.7s1.1-1.2 1.1-2.1c0-.8-.3-1.5-1-2s-1.9-1.1-3.8-1.8c-.6-.2-1.1-.4-1.3-.5-2.2-.9-3.8-1.8-4.8-2.9s-1.5-2.5-1.5-4.3c0-2.2.8-3.9 2.4-5.1s3.8-1.8 6.6-1.8c3.1 0 5.8.6 8.1 1.7l-1.4 4c-2.3-1.1-4.5-1.6-6.6-1.6-1.2 0-2.1.2-2.7.6-.7.4-1 1-1 1.8 0 .7.3 1.3.9 1.7s1.9 1 3.7 1.6c.1 0 .2.1.6.2s.6.2.7.3c2.2.8 3.8 1.8 4.9 2.9 1 1.1 1.6 2.6 1.6 4.4 0 2.4-.8 4.3-2.5 5.6-1.6 1.4-3.9 2.1-6.9 2.1z"/><path d="m298.4 1094.8v-33l5.8-.4v7c0 .3 0 1.3-.1 2.8 0 1.5-.1 2.3-.1 2.3 1.9-2.3 4.5-3.4 7.7-3.4 2.7 0 4.8.8 6.3 2.3s2.2 3.9 2.2 7.1v15.3h-5.8v-14.7c0-2-.3-3.4-.9-4.3s-1.7-1.4-3.2-1.4c-1.3 0-2.4.3-3.4 1s-1.7 1.5-2.2 2.5c-.4 1.3-.5 3.1-.5 5.3v11.6z"/><path d="m330.6 1094.8-7.3-24.1h5.9l4.6 17.7c.1-.3.9-3.2 2.5-8.6s2.5-8.4 2.7-9.1h5.9c.2.6 1 3.6 2.5 9s2.3 8.3 2.4 8.7l4.8-17.6h5.8l-7.6 24.1h-5.7c-.2-.6-1.1-3.8-2.7-9.6-1.6-5.7-2.5-8.8-2.6-9.3-.3 1.1-1.2 4.3-2.8 9.7s-2.5 8.4-2.7 9.2h-5.7z"/><path d="m369.8 1095.3c-2.2 0-4.1-.6-5.4-1.9-1.4-1.2-2.1-3-2.1-5.4 0-2.5.8-4.4 2.5-5.6 1.6-1.2 4.1-2 7.4-2.3.5-.1.9-.1 1.5-.2s1.1-.1 1.8-.2 1.2-.1 1.6-.2v-1.3c0-1.5-.3-2.5-1-3.2s-1.7-1-3.1-1c-2 0-4.4.5-7.3 1.6 0 0-.3-.7-.7-2s-.7-1.9-.7-2c2.8-1.2 5.9-1.8 9.2-1.8s5.6.7 7.1 2.1 2.2 3.7 2.2 6.9v15.8h-4.3c0-.1-.2-.5-.5-1.5-.3-.9-.5-1.4-.5-1.5-1.2 1.2-2.4 2-3.5 2.6-1.1.8-2.5 1.1-4.2 1.1zm1.6-4.1c1.3 0 2.5-.3 3.5-1 1-.6 1.7-1.4 2.1-2.3v-4.7s-.4 0-1.2.1c-.7.1-1.1.1-1.2.1-2.3.2-4 .6-5.1 1.3s-1.6 1.8-1.6 3.3c0 1 .3 1.8.9 2.4.6.5 1.5.8 2.6.8z"/><path d="m396.3 1095.3c-3.6 0-6.4-.6-8.5-1.8l.6-4.3c1 .5 2.2 1 3.7 1.4s2.9.6 4.1.6c1.3 0 2.3-.2 3-.7s1.1-1.2 1.1-2.1c0-.8-.3-1.5-1-2s-1.9-1.1-3.8-1.8c-.6-.2-1.1-.4-1.3-.5-2.2-.9-3.8-1.8-4.8-2.9s-1.5-2.5-1.5-4.3c0-2.2.8-3.9 2.4-5.1s3.8-1.8 6.6-1.8c3.1 0 5.8.6 8.1 1.7l-1.4 4c-2.3-1.1-4.5-1.6-6.6-1.6-1.2 0-2.1.2-2.7.6-.7.4-1 1-1 1.8 0 .7.3 1.3.9 1.7s1.9 1 3.7 1.6c.1 0 .2.1.6.2s.6.2.7.3c2.2.8 3.8 1.8 4.9 2.9 1 1.1 1.6 2.6 1.6 4.4 0 2.4-.8 4.3-2.5 5.6-1.6 1.4-4 2.1-6.9 2.1z"/><path d="m410.2 1094.8v-33l5.8-.4v7c0 .3 0 1.3-.1 2.8 0 1.5-.1 2.3-.1 2.3 1.9-2.3 4.5-3.4 7.7-3.4 2.7 0 4.8.8 6.3 2.3s2.2 3.9 2.2 7.1v15.3h-5.8v-14.7c0-2-.3-3.4-.9-4.3s-1.7-1.4-3.2-1.4c-1.3 0-2.4.3-3.4 1s-1.7 1.5-2.2 2.5c-.4 1.3-.5 3.1-.5 5.3v11.6z"/><path d="m448.9 1095.3c-3.9 0-6.9-1.1-9.1-3.4-2.2-2.2-3.2-5.3-3.2-9.3 0-3.8 1-6.9 3.1-9.2s4.8-3.4 8.3-3.4c3.3 0 5.9 1 7.7 3.1s2.8 4.8 2.8 8.3v1.2 1.2h-16.1c.1 2.3.7 4 1.9 5.2s2.8 1.9 4.9 1.9c2.6 0 5.2-.7 7.6-2.1l.8 4.1c-2.5 1.7-5.4 2.4-8.7 2.4zm-6.4-15h10.5c0-2-.4-3.5-1.3-4.5s-2.1-1.6-3.7-1.6c-1.5 0-2.7.5-3.7 1.5-1.1 1.1-1.7 2.6-1.8 4.6z"/><path d="m463.2 1094.8v-24.1h4.8l.7 3.7c1.6-2.5 3.9-3.8 6.9-3.8.6 0 1.1 0 1.5.1l-.1 4.8c-.6-.1-1.2-.1-1.8-.1-2.1 0-3.7.6-4.8 1.7-1 1.1-1.6 2.7-1.6 4.7v13.1h-5.6z"/><path d="m244.2 1148.8 11.8-32.2h6.5l11.7 32.2h-6.1l-3.2-9.1h-11.3l-3.2 9.1zm10.9-13.5h8.3c-2.6-8.5-4-12.8-4.1-13.1z"/><path d="m281.9 1159.6-.3-4.7h2.9c3.4 0 5.7-.5 7.1-1.4 1.3-.9 2-2.6 2-5 0-1 0-2-.1-3.2-.4.5-.7 1-1.1 1.3-.3.3-.8.7-1.3 1s-1.1.6-1.9.8c-.7.2-1.5.3-2.5.3-3.2 0-5.8-1.1-7.9-3.4s-3.1-5.3-3.1-8.9c0-1.9.3-3.7.9-5.3s1.3-2.9 2.3-3.9 2.1-1.8 3.4-2.4c1.3-.5 2.6-.8 4.1-.8 3.2 0 5.6 1.2 7.2 3.5l.4-2.9h5.1v22.4c0 1.2-.1 2.3-.2 3.2-.1 1-.3 1.9-.6 2.8s-.7 1.7-1.2 2.3c-.5.7-1.1 1.3-1.8 1.8s-1.6 1-2.5 1.3c-1 .3-2.1.6-3.4.8s-2.7.3-4.4.3h-3.1zm5.8-14.8c4 0 6-2.7 6-8v-.8c0-2.4-.5-4.2-1.5-5.5s-2.4-2-4.2-2c-2.1 0-3.7.7-4.8 2.2-1.1 1.4-1.6 3.4-1.6 5.8s.5 4.3 1.6 5.9 2.6 2.4 4.5 2.4z"/><path d="m311.3 1149.3c-2.2 0-4.1-.6-5.4-1.9-1.4-1.2-2.1-3-2.1-5.4 0-2.5.8-4.4 2.5-5.6 1.6-1.2 4.1-2 7.4-2.3.5-.1.9-.1 1.5-.2s1.1-.1 1.8-.2 1.2-.1 1.6-.2v-1.3c0-1.5-.3-2.5-1-3.2s-1.7-1-3.1-1c-2 0-4.4.5-7.3 1.6 0 0-.3-.7-.7-2s-.7-1.9-.7-2c2.8-1.2 5.9-1.8 9.2-1.8s5.6.7 7.1 2.1 2.2 3.7 2.2 6.9v15.8h-4.3c0-.1-.2-.5-.5-1.5-.3-.9-.5-1.4-.5-1.5-1.2 1.2-2.4 2-3.5 2.6-1.2.8-2.6 1.1-4.2 1.1zm1.5-4.1c1.3 0 2.5-.3 3.5-1 1-.6 1.7-1.4 2.1-2.3v-4.7s-.4 0-1.2.1c-.7.1-1.1.1-1.2.1-2.3.2-4 .6-5.1 1.3s-1.6 1.8-1.6 3.3c0 1 .3 1.8.9 2.4.7.5 1.5.8 2.6.8z"/><path d="m330.1 1121.2v-4.9h5.8v4.9zm0 27.6v-24.1h5.8v24.1z"/><path d="m341.9 1148.8v-24.1h4.6l.6 3.1c2.5-2.4 5.2-3.6 8.2-3.6 2.8 0 4.9.8 6.3 2.4s2.1 4 2.1 7v15.3h-5.7v-14.6c0-1.9-.3-3.4-.9-4.4s-1.7-1.5-3.3-1.5c-1.2 0-2.4.3-3.4 1-1 .6-1.8 1.4-2.3 2.4-.3 1.1-.4 2.9-.4 5.3v11.8h-5.8z"/></g><g fill="#c9c9c9" opacity=".5"><path d="m646.6 774.4v-32.3h10.7c2.5 0 4.7.3 6.5 1s3.2 1.7 4.3 3.2c1 1.5 1.6 3.3 1.6 5.5 0 1.5-.2 2.9-.6 4.1s-1 2.3-2 3.3c-.9 1-2.2 1.7-3.8 2.3-1.6.5-3.6.8-6 .8-2 0-3.6-.1-4.9-.2v12.4h-5.8zm10-16.5c1.2 0 2.3-.1 3.2-.4.9-.2 1.6-.5 2.1-.9s.9-.8 1.2-1.4c.3-.5.5-1.1.6-1.6s.1-1.1.1-1.7c0-1.8-.6-3.1-1.7-4s-2.8-1.4-4.8-1.4h-4.9v11.3c.2.1 1.6.1 4.2.1z"/><path d="m683.6 774.9c-3.6 0-6.4-1.2-8.4-3.5s-3.1-5.4-3.1-9.1c0-3.9 1-7 3.1-9.2s4.9-3.4 8.7-3.4c3.6 0 6.4 1.1 8.5 3.4 2 2.3 3.1 5.3 3.1 9.2s-1 6.9-3.1 9.2c-2.2 2.2-5.1 3.4-8.8 3.4zm.1-4.4c1.9 0 3.4-.7 4.4-2.1s1.5-3.5 1.5-6.1c0-2.7-.5-4.7-1.5-6.1s-2.5-2.1-4.4-2.1-3.4.7-4.4 2.1-1.5 3.5-1.5 6.1.5 4.7 1.5 6.1 2.5 2.1 4.4 2.1z"/><path d="m707.8 774.8c-3.6 0-6.4-.6-8.5-1.8l.6-4.3c1 .5 2.2 1 3.7 1.4s2.9.6 4.1.6c1.3 0 2.3-.2 3-.7s1.1-1.2 1.1-2.1c0-.8-.3-1.5-1-2s-1.9-1.1-3.8-1.8c-.6-.2-1.1-.4-1.3-.5-2.2-.9-3.8-1.8-4.8-2.9s-1.5-2.5-1.5-4.3c0-2.2.8-3.9 2.4-5.1s3.8-1.8 6.6-1.8c3.1 0 5.8.6 8.1 1.7l-1.4 4c-2.3-1.1-4.5-1.6-6.6-1.6-1.2 0-2.1.2-2.7.6-.7.4-1 1-1 1.8 0 .7.3 1.3.9 1.7s1.9 1 3.7 1.6c.1 0 .2.1.6.2s.6.2.7.3c2.2.8 3.8 1.8 4.9 2.9 1 1.1 1.6 2.6 1.6 4.4 0 2.4-.8 4.3-2.5 5.6-1.6 1.5-3.9 2.1-6.9 2.1z"/><path d="m729.4 774.8c-3.6 0-6.4-.6-8.5-1.8l.6-4.3c1 .5 2.2 1 3.7 1.4s2.9.6 4.1.6c1.3 0 2.3-.2 3-.7s1.1-1.2 1.1-2.1c0-.8-.3-1.5-1-2s-1.9-1.1-3.8-1.8c-.6-.2-1.1-.4-1.3-.5-2.2-.9-3.8-1.8-4.8-2.9s-1.5-2.5-1.5-4.3c0-2.2.8-3.9 2.4-5.1s3.8-1.8 6.6-1.8c3.1 0 5.8.6 8.1 1.7l-1.4 4c-2.3-1.1-4.5-1.6-6.6-1.6-1.2 0-2.1.2-2.7.6-.7.4-1 1-1 1.8 0 .7.3 1.3.9 1.7s1.9 1 3.7 1.6c.1 0 .2.1.6.2s.6.2.7.3c2.2.8 3.8 1.8 4.9 2.9 1 1.1 1.6 2.6 1.6 4.4 0 2.4-.8 4.3-2.5 5.6-1.6 1.5-3.9 2.1-6.9 2.1z"/><path d="m743.5 746.7v-4.9h5.8v4.9zm0 27.7v-24.1h5.8v24.1z"/><path d="m768.2 774.9c-1.6 0-3.1-.4-4.5-1.1-1.3-.7-2.3-1.5-2.9-2.5l-.6 3.1h-5v-33l5.8-.4v7.5c0 1.4 0 3.1-.1 4.9 1.9-2.5 4.4-3.7 7.4-3.7 3.1 0 5.5 1.1 7.2 3.4 1.8 2.3 2.6 5.3 2.6 9 0 3.8-.9 6.9-2.7 9.3-1.7 2.3-4.2 3.5-7.2 3.5zm-1.4-4.4c1.7 0 3.1-.7 4.1-2.2s1.5-3.5 1.5-6.2-.5-4.7-1.5-6.1-2.4-2.1-4.1-2.1c-3.9 0-5.9 2.6-5.9 7.9 0 3 .5 5.1 1.5 6.5s2.5 2.2 4.4 2.2z"/><path d="m791.3 774.7c-1.7 0-3-.2-4.1-.6s-2-1-2.6-1.9-1.1-1.9-1.3-3-.4-2.6-.4-4.4v-23.5l5.8-.4v23.8c0 2.2.3 3.6.8 4.4s1.5 1.2 3 1.2c.7 0 1.7-.1 2.8-.2l.2 4.1s-.2 0-.5.1-.7.1-1 .2-.7.1-1.2.2c-.6 0-1.1 0-1.5 0z"/><path d="m809.3 774.9c-3.9 0-6.9-1.1-9.1-3.4-2.2-2.2-3.2-5.3-3.2-9.3 0-3.8 1-6.9 3.1-9.2s4.8-3.4 8.3-3.4c3.3 0 5.9 1 7.7 3.1s2.8 4.8 2.8 8.3v1.2 1.2h-16.1c.1 2.3.7 4 1.9 5.2s2.8 1.9 4.9 1.9c2.6 0 5.2-.7 7.6-2.1l.8 4.1c-2.5 1.6-5.4 2.4-8.7 2.4zm-6.4-15h10.5c0-2-.4-3.5-1.3-4.5s-2.1-1.6-3.7-1.6c-1.5 0-2.7.5-3.7 1.5-1.1 1-1.7 2.5-1.8 4.6z"/><path d="m641.5 828.9c-4.8 0-8.7-1.5-11.5-4.4s-4.2-7-4.2-12.2 1.4-9.3 4.2-12.2 6.6-4.4 11.5-4.4 8.7 1.5 11.5 4.4 4.2 7 4.2 12.2c0 5.1-1.4 9.2-4.2 12.1s-6.7 4.5-11.5 4.5zm-7.1-8c1.6 2 4 3.1 7.1 3.1s5.5-1 7.1-3 2.4-4.9 2.4-8.6c0-3.8-.8-6.7-2.4-8.7-1.6-2.1-3.9-3.1-7-3.1s-5.5 1-7.1 3.1-2.4 5-2.4 8.7c-.1 3.6.7 6.5 2.3 8.5z"/><path d="m679.7 826.5c-1.9 1.6-4.4 2.4-7.6 2.4s-5.7-.8-7.6-2.4-2.9-3.9-2.9-6.9v-15.4h5.8v15.1c0 1.8.4 3.1 1.1 3.9.8.8 2 1.2 3.6 1.2s2.8-.4 3.5-1.2 1.1-2.1 1.1-3.9v-15.1h5.8v15.4c.1 3-.9 5.3-2.8 6.9z"/><path d="m697.5 828.7c-1.6 0-3-.2-4.1-.6s-1.9-1-2.6-1.8c-.6-.8-1.1-1.8-1.3-3-.3-1.1-.4-2.5-.4-4.2v-11.4h-4l.2-3.1 4.1-.4 1.8-6.5h3.5v6.6h6v3.5h-6v11.5c0 1.8.3 3.1.8 3.9s1.5 1.2 2.9 1.2c.8 0 1.7-.1 2.7-.2l.2 4.1s-.2 0-.5.1-.6.1-.9.2-.7.1-1.2.1-.8 0-1.2 0z"/><path d="m715.9 828.9c-3.7 0-6.6-1.1-8.6-3.3-2.1-2.2-3.1-5.3-3.1-9.4 0-4 1.1-7 3.2-9.2 2.2-2.2 5-3.3 8.5-3.3 2.8 0 5.2.6 7.2 1.8l-1.4 4.1c-2-1-3.8-1.6-5.6-1.6-1.9 0-3.5.7-4.6 2.1s-1.7 3.4-1.7 6.1.6 4.7 1.7 6.2c1.1 1.4 2.7 2.1 4.7 2.1 2.1 0 4.1-.6 6.1-1.9l.5 4.4c-1 .7-2.1 1.2-3.1 1.4-1.1.3-2.4.5-3.8.5z"/><path d="m737.6 828.9c-3.6 0-6.4-1.2-8.4-3.5s-3.1-5.4-3.1-9.1c0-3.9 1-7 3.1-9.2s4.9-3.4 8.7-3.4c3.6 0 6.4 1.1 8.5 3.4 2 2.3 3.1 5.3 3.1 9.2s-1 6.9-3.1 9.2c-2.2 2.2-5.1 3.4-8.8 3.4zm.2-4.4c1.9 0 3.4-.7 4.4-2.1s1.5-3.5 1.5-6.1c0-2.7-.5-4.7-1.5-6.1s-2.5-2.1-4.4-2.1-3.4.7-4.4 2.1-1.5 3.5-1.5 6.1.5 4.7 1.5 6.1c.9 1.4 2.4 2.1 4.4 2.1z"/><path d="m754.1 828.4v-24.1h4.7l.7 3.1c.3-.4.6-.7.8-1 .3-.3.6-.6 1.1-1s1-.7 1.5-.9 1.2-.4 2-.6 1.6-.2 2.5-.2c1.9 0 3.5.4 4.6 1.2s2 1.7 2.4 2.7c.9-1.2 2-2.2 3.4-2.9s2.9-1 4.6-1c2.8 0 4.8.8 6.1 2.4s1.9 3.9 1.9 7v15.4h-5.8v-13.7c0-2.4-.3-4.1-.8-5.1s-1.5-1.6-3-1.6c-2.2 0-3.9 1-4.8 3-.4.9-.7 2-.8 3.2v14.1h-5.8v-14c0-2.2-.3-3.8-.9-4.8-.6-1.1-1.6-1.6-3.1-1.6-1.2 0-2.3.3-3.1.9s-1.5 1.4-2 2.4c-.3 1.5-.5 3.3-.5 5.3v11.7h-5.7z"/><path d="m807.3 828.9c-3.9 0-6.9-1.1-9.1-3.4-2.2-2.2-3.2-5.3-3.2-9.3 0-3.8 1-6.9 3.1-9.2s4.8-3.4 8.3-3.4c3.3 0 5.9 1 7.7 3.1s2.8 4.8 2.8 8.3v1.2 1.2h-16.1c.1 2.3.7 4 1.9 5.2s2.8 1.9 4.9 1.9c2.6 0 5.2-.7 7.6-2.1l.8 4.1c-2.5 1.6-5.4 2.4-8.7 2.4zm-6.4-15h10.5c0-2-.4-3.5-1.3-4.5s-2.1-1.6-3.7-1.6c-1.5 0-2.7.5-3.7 1.5-1.1 1-1.7 2.5-1.8 4.6z"/><path d="m829.2 828.8c-3.6 0-6.4-.6-8.5-1.8l.6-4.3c1 .5 2.2 1 3.7 1.4s2.9.6 4.1.6c1.3 0 2.3-.2 3-.7s1.1-1.2 1.1-2.1c0-.8-.3-1.5-1-2s-1.9-1.1-3.8-1.8c-.6-.2-1.1-.4-1.3-.5-2.2-.9-3.8-1.8-4.8-2.9s-1.5-2.5-1.5-4.3c0-2.2.8-3.9 2.4-5.1s3.8-1.8 6.6-1.8c3.1 0 5.8.6 8.1 1.7l-1.4 4c-2.3-1.1-4.5-1.6-6.6-1.6-1.2 0-2.1.2-2.7.6-.7.4-1 1-1 1.8 0 .7.3 1.3.9 1.7s1.9 1 3.7 1.6c.1 0 .2.1.6.2s.6.2.7.3c2.2.8 3.8 1.8 4.9 2.9 1 1.1 1.6 2.6 1.6 4.4 0 2.4-.8 4.3-2.5 5.6-1.6 1.5-3.9 2.1-6.9 2.1z"/></g><g fill="#c9c9c9" opacity=".5"><path d="m653.1 1288.3 11.8-32.2h6.5l11.7 32.2h-6.1l-3.2-9.1h-11.3l-3.2 9.1zm10.9-13.5h8.3c-2.6-8.5-4-12.8-4.1-13.1z"/><path d="m696.5 1288.8c-3.7 0-6.6-1.1-8.6-3.3-2.1-2.2-3.1-5.3-3.1-9.4 0-4 1.1-7 3.2-9.2 2.2-2.2 5-3.3 8.5-3.3 2.8 0 5.2.6 7.2 1.8l-1.4 4.1c-2-1-3.8-1.6-5.6-1.6-1.9 0-3.5.7-4.6 2.1s-1.7 3.4-1.7 6.1.6 4.7 1.7 6.2c1.1 1.4 2.7 2.1 4.7 2.1 2.1 0 4.1-.6 6.1-1.9l.5 4.4c-1 .7-2.1 1.2-3.1 1.4-1 .3-2.3.5-3.8.5z"/><path d="m717.7 1288.7c-1.6 0-3-.2-4.1-.6s-1.9-1-2.6-1.8c-.6-.8-1.1-1.8-1.3-3-.3-1.1-.4-2.5-.4-4.2v-11.4h-4l.2-3.1 4.1-.4 1.8-6.5h3.5v6.6h6v3.5h-6v11.5c0 1.8.3 3.1.8 3.9s1.5 1.2 2.9 1.2c.8 0 1.7-.1 2.7-.2l.2 4.1s-.2 0-.5.1-.6.1-.9.2-.7.1-1.2.1-.8 0-1.2 0z"/><path d="m725.8 1260.7v-4.9h5.8v4.9zm0 27.6v-24.1h5.8v24.1z"/><path d="m748 1288.8c-3.6 0-6.4-1.2-8.4-3.5s-3.1-5.4-3.1-9.1c0-3.9 1-7 3.1-9.2s4.9-3.4 8.7-3.4c3.6 0 6.4 1.1 8.5 3.4 2 2.3 3.1 5.3 3.1 9.2s-1 6.9-3.1 9.2c-2.2 2.3-5.1 3.4-8.8 3.4zm.1-4.4c1.9 0 3.4-.7 4.4-2.1s1.5-3.5 1.5-6.1c0-2.7-.5-4.7-1.5-6.1s-2.5-2.1-4.4-2.1-3.4.7-4.4 2.1-1.5 3.5-1.5 6.1.5 4.7 1.5 6.1 2.5 2.1 4.4 2.1z"/><path d="m764.5 1288.3v-24.1h4.6l.6 3.1c2.5-2.4 5.2-3.6 8.2-3.6 2.8 0 4.9.8 6.3 2.4s2.1 4 2.1 7v15.3h-5.8v-14.6c0-1.9-.3-3.4-.9-4.4s-1.7-1.5-3.3-1.5c-1.2 0-2.4.3-3.4 1-1 .6-1.8 1.4-2.3 2.4-.3 1.1-.4 2.9-.4 5.3v11.8h-5.7z"/><path d="m799.7 1288.8c-3.6 0-6.4-.6-8.5-1.8l.6-4.3c1 .5 2.2 1 3.7 1.4s2.9.6 4.1.6c1.3 0 2.3-.2 3-.7s1.1-1.2 1.1-2.1c0-.8-.3-1.5-1-2s-1.9-1.1-3.8-1.8c-.6-.2-1.1-.4-1.3-.5-2.2-.9-3.8-1.8-4.8-2.9s-1.5-2.5-1.5-4.3c0-2.2.8-3.9 2.4-5.1s3.8-1.8 6.6-1.8c3.1 0 5.8.6 8.1 1.7l-1.4 4c-2.3-1.1-4.5-1.6-6.6-1.6-1.2 0-2.1.2-2.7.6-.7.4-1 1-1 1.8 0 .7.3 1.3.9 1.7s1.9 1 3.7 1.6c.1 0 .2.1.6.2s.6.2.7.3c2.2.8 3.8 1.8 4.9 2.9 1 1.1 1.6 2.6 1.6 4.4 0 2.4-.8 4.3-2.5 5.6-1.6 1.4-3.9 2.1-6.9 2.1z"/></g><path d="m500.1 860.3c49.7 56.6 79.6 129.6 79.6 209.4 0 78.6-38.8 162.9-87.3 219.2" fill="none" stroke="#d8e2fa" stroke-linecap="round" stroke-miterlimit="10" stroke-width="6"/><path d="m533.9 670v28.1" fill="none" stroke="#d8e2fa" stroke-linecap="round" stroke-miterlimit="10" stroke-width="6"/><path d="m562 698.1h-28.1" fill="none" stroke="#d8e2fa" stroke-linecap="round" stroke-miterlimit="10" stroke-width="6"/><path d="m624.8 518.2c0 66-32.9 130.3-87.6 177.6" fill="none" stroke="#d8e2fa" stroke-linecap="round" stroke-miterlimit="10" stroke-width="6"/><path d="m839.5 518.2c0 66 32.9 126.6 87.6 173.9" fill="none" stroke="#d8e2fa" stroke-linecap="round" stroke-miterlimit="10" stroke-width="6"/><path d="m789.4 543.1 31.4-2.9 1.1 11.6c.1 1.6.2 3 .2 4.1 0 1.2-.2 2.3-.5 3.4s-.7 2-1.3 2.7-1.4 1.3-2.4 1.8-2.2.8-3.6.9c-4.2.4-7.1-1.2-8.7-4.9-.8.9-2.3 2-4.6 3.3l-9.2 5.6-.6-6.3 7.9-4.4c2.8-1.7 4.5-2.7 5-3.1 0-.2-.1-1.1-.2-2.4l-.4-4.9-13.5 1.2zm18.7 10.5c.2 2.2.8 3.8 1.6 4.7.9.9 2.2 1.3 4 1.1 1.5-.1 2.6-.7 3.3-1.8.6-1.1.9-2.6.7-4.6l-.6-6.7-9.5.9c0 .2.1 1.3.3 3.2.1 1.9.2 3 .2 3.2z" fill="#eee"/><path d="m795.4 586.1c-.9-3.7-.6-6.8 1-9.4s4.3-4.3 8-5.3c3.6-.9 6.8-.7 9.4.7s4.4 3.8 5.2 7.1c.8 3.2.4 5.8-1.1 8.1-1.5 2.2-3.9 3.8-7.2 4.6-.2.1-.6.1-1.1.3-.5.1-.9.2-1.2.3l-3.8-15.2c-2.1.6-3.6 1.6-4.5 3s-1.1 3.1-.6 5.1c.6 2.5 1.9 4.7 3.8 6.7l-3.7 1.7c-2-2-3.4-4.6-4.2-7.7zm12.7-9.6 2.5 10c1.9-.5 3.2-1.2 4-2.3s1-2.4.6-3.9c-.3-1.4-1.1-2.5-2.3-3.2-1.2-.8-2.8-1-4.8-.6z" fill="#eee"/><path d="m802.7 608.8c-1.2-3.3-1.7-6.1-1.3-8.4l4.2-1c-.1 1.1-.1 2.4 0 3.9s.4 2.8.8 4 1 2 1.7 2.5 1.4.6 2.3.3c.8-.3 1.2-.8 1.5-1.6s.3-2.1.3-4.1c0-.7 0-1.1 0-1.3 0-2.3.3-4.1 1-5.4s1.8-2.2 3.4-2.8c2-.8 3.8-.6 5.4.4s2.9 2.9 3.9 5.5c1.1 2.8 1.5 5.5 1.2 8l-4.1.1c.2-2.5-.1-4.7-.8-6.6-.4-1.1-.9-1.8-1.5-2.3s-1.2-.6-2-.3c-.7.3-1.1.7-1.3 1.5-.2.7-.2 2-.2 3.9v.6.8c0 2.3-.3 4.1-.9 5.5-.7 1.3-1.8 2.3-3.5 3-2.2.8-4.2.7-6-.3-1.7-1.3-3.1-3.2-4.1-5.9z" fill="#eee"/><path d="m813.3 632.6c-1.6-3.1-1.9-6.1-.8-8.9s3.3-5.1 6.5-6.8c3.4-1.8 6.5-2.3 9.4-1.5s5.2 2.8 6.8 6c1.6 3.1 1.9 6.1.8 8.9s-3.3 5.1-6.6 6.8-6.5 2.2-9.4 1.5c-2.7-.8-5-2.8-6.7-6zm3.9-1.9c.9 1.7 2.2 2.6 3.8 2.9 1.7.2 3.7-.3 6-1.5s3.9-2.6 4.7-4c.8-1.5.7-3.1-.2-4.8s-2.2-2.6-3.8-2.9c-1.7-.2-3.7.3-6 1.5s-3.8 2.5-4.6 4c-.9 1.5-.8 3.1.1 4.8z" fill="#eee"/><path d="m826.7 655.1c-.9-1.4-1.4-2.6-1.7-3.7s-.2-2.1.2-3.1 1-1.9 1.8-2.7 2-1.7 3.4-2.6l19.4-12.4 3.3 4.5-19.6 12.6c-1.8 1.1-2.9 2.1-3.2 3-.4.8-.2 1.9.6 3.1.4.6.9 1.3 1.7 2.2l-3.3 2.3s-.1-.1-.4-.4c-.2-.2-.5-.5-.7-.7s-.5-.5-.8-.9c-.3-.6-.5-.9-.7-1.2z" fill="#eee"/><path d="m835.6 667.1 13.1-21.8 3.6 4.7c-.4.6-1.5 2.4-3.5 5.4-1.9 3-3.3 5-4 6.1-1.4 2.1-2.5 3.7-3.2 4.7 0 0 .5-.2 1.3-.6.9-.4 1.7-.7 2.5-1s1.3-.5 1.4-.6c0 0 2-.7 5.9-2 3.9-1.4 6.2-2.1 6.9-2.3l3.6 4.7-24.2 7.2z" fill="#eee"/><path d="m854.5 690.5c-2.6-2.8-3.8-5.7-3.6-8.7s1.7-5.9 4.5-8.5c2.8-2.5 5.6-3.8 8.6-3.9 3 0 5.6 1.2 8 3.7 2.2 2.4 3.2 4.9 2.9 7.6s-1.7 5.2-4.1 7.5c-.2.2-.5.4-.9.8s-.7.6-.9.8l-10.6-11.6c-1.6 1.5-2.4 3.1-2.5 4.8s.5 3.2 1.9 4.7c1.7 1.9 3.9 3.3 6.5 4.1l-2.4 3.3c-2.7-.7-5.2-2.2-7.4-4.6zm6.6-14.6 7 7.6c1.4-1.3 2.2-2.6 2.4-4 .2-1.3-.3-2.6-1.3-3.7s-2.2-1.6-3.6-1.7c-1.5 0-3 .6-4.5 1.8z" fill="#eee"/><path d="m618.5 680.7-25.5-18.6 6.9-9.4c.9-1.3 1.8-2.4 2.6-3.2.8-.9 1.7-1.6 2.6-2.2s1.8-1 2.7-1.2c.9-.1 1.9-.1 3 .2s2.2.9 3.3 1.7c3.4 2.5 4.5 5.6 3.3 9.5 1.2-.1 3 .1 5.6.5l10.6 1.9-3.7 5.1-8.8-1.9c-3.2-.6-5.1-.9-5.8-1-.2.2-.6.8-1.4 1.9l-2.9 3.9 10.9 8zm-7.2-20.3c1.3-1.8 1.9-3.3 1.9-4.6-.1-1.3-.8-2.4-2.2-3.4-1.2-.9-2.5-1.2-3.6-.8s-2.4 1.4-3.6 3l-3.9 5.4 7.7 5.6c.1-.2.8-1 1.9-2.6 1.1-1.5 1.7-2.4 1.8-2.6z" fill="#eee"/><path d="m642.3 644.6c-1.8 3.4-4.1 5.5-7 6.3-2.9.9-6.1.4-9.5-1.4-3.3-1.7-5.5-4-6.5-6.8s-.8-5.7.8-8.8c1.5-2.9 3.6-4.6 6.2-5.3s5.4-.2 8.4 1.4c.2.1.6.3 1 .6s.8.4 1.1.6l-7.3 13.9c2 1 3.8 1.2 5.4.8s2.9-1.6 3.8-3.4c1.2-2.3 1.8-4.8 1.7-7.5l3.9 1.2c.2 2.7-.4 5.5-2 8.4zm-15.8-1.3 4.8-9.1c-1.7-.9-3.2-1.2-4.5-.9s-2.3 1.1-3.1 2.5c-.7 1.3-.8 2.6-.4 3.9.4 1.4 1.5 2.5 3.2 3.6z" fill="#eee"/><path d="m623.9 619.2-4.4-1.8 2.2-5.2 4.4 1.8zm31.7 18.1-4.1-1 .5-1.2c.3-.7.4-1.2.5-1.7s.1-.9 0-1.2c-.1-.4-.3-.7-.6-1s-.7-.5-1.1-.8-1-.5-1.7-.8l-22.1-9.2 2.2-5.2 21.3 8.8c1.1.4 2 .9 2.7 1.3s1.4.9 2 1.4 1.1 1.1 1.4 1.7.5 1.2.6 2 0 1.6-.2 2.5-.5 2-1 3.1z" fill="#eee"/><path d="m657.4 608c-1.2 3.6-3.1 6.1-5.8 7.4s-5.9 1.4-9.6.3c-3.6-1.1-6.1-3-7.6-5.6s-1.7-5.5-.7-8.8c1-3.1 2.7-5.2 5.2-6.3s5.3-1.1 8.5-.1c.2.1.6.2 1.1.4s.9.3 1.1.4l-4.8 15c2.1.6 3.9.6 5.4-.2 1.5-.7 2.6-2.1 3.2-4 .8-2.5.9-5 .3-7.7l4 .5c.8 2.6.6 5.5-.3 8.7zm-15.9 1.5 3.1-9.8c-1.8-.6-3.4-.6-4.6-.1s-2.1 1.5-2.6 3c-.4 1.4-.3 2.7.3 3.9.7 1.2 2 2.2 3.8 3z" fill="#eee"/><path d="m663.9 582.5c-.7 3.5-2.4 6.1-4.9 7.6s-5.7 1.9-9.6 1c-3.8-.8-6.5-2.5-8.2-5-1.6-2.5-2.1-5.5-1.4-8.8.6-2.7 1.6-4.9 3.2-6.5l3.7 2.1c-1.4 1.7-2.3 3.4-2.6 5-.4 1.9 0 3.5 1.1 4.8 1.1 1.4 2.9 2.3 5.5 2.8s4.7.4 6.2-.3c1.6-.8 2.6-2.1 3-4.1s.2-4.1-.6-6.2l4.3.4c.4 1.1.7 2.2.7 3.3 0 1.2-.1 2.5-.4 3.9z" fill="#eee"/><path d="m667.3 560.5c-.2 1.6-.6 2.9-1.1 3.9s-1.2 1.8-2.1 2.2c-.9.5-1.9.8-3 .9s-2.5 0-4.1-.2l-11.1-1.5-.5 3.8-3-.6.2-4.1-6.1-2.6.4-3.4 6.4.8.8-5.8 3.4.4-.8 5.8 11.2 1.5c1.8.2 3.1.1 3.9-.3s1.3-1.3 1.5-2.7c.1-.8.2-1.7.1-2.6l4 .4v.5.9s0 .7 0 1.1c0 .8-.1 1.2-.1 1.6z" fill="#eee"/><path d="m490.4 1261.8v28.1" fill="none" stroke="#d8e2fa" stroke-linecap="round" stroke-miterlimit="10" stroke-width="6"/><path d="m518.5 1289.9h-28.1" fill="none" stroke="#d8e2fa" stroke-linecap="round" stroke-miterlimit="10" stroke-width="6"/><path d="m965.3 860.3c-49.7 56.6-79.6 129.6-79.6 209.4 0 78.6 38.8 162.9 87.3 219.2" fill="none" stroke="#d8e2fa" stroke-linecap="round" stroke-miterlimit="10" stroke-width="6"/><path d="m977.9 1265.2v28.1" fill="none" stroke="#d8e2fa" stroke-linecap="round" stroke-miterlimit="10" stroke-width="6"/><path d="m949.9 1293.3h28" fill="none" stroke="#d8e2fa" stroke-linecap="round" stroke-miterlimit="10" stroke-width="6"/><path d="m1010.6 1175.2h341.2v303.7h-341.2z" fill="#959595"/><path d="m1025.5 1189.9h311.6v272.9h-311.6z" fill="#151c3a"/><path d="m1010.7 1316.8h341.2v13.8h-341.2z" fill="#959595"/><path d="m1297.4 1462.2h-76.3s-.9-2.4-5.2-4.9h86.2c-3.4 2.1-4.7 4.9-4.7 4.9z" fill="#fff"/><path d="m1203.9 1449.2h111.4v8.1h-111.4z" fill="#fff"/><path d="m1220.9 1457.3h76.4" style="opacity:.43;fill:none;stroke:#c9c9c9;stroke-width:3;stroke-linecap:round;stroke-miterlimit:10"/><path d="m1297.4 1449.2h-76.3s-.9-2.4-5.2-4.9h86.2c-3.4 2.1-4.7 4.9-4.7 4.9z" fill="#fff"/><path d="m1203.9 1436.2h111.4v8.1h-111.4z" fill="#fff"/><path d="m1220.9 1444.3h76.4" style="opacity:.43;fill:none;stroke:#c9c9c9;stroke-width:3;stroke-linecap:round;stroke-miterlimit:10"/><path d="m1297.4 1436.2h-76.3s-.9-2.4-5.2-4.9h86.2c-3.4 2.1-4.7 4.9-4.7 4.9z" fill="#fff"/><path d="m1203.9 1423.2h111.4v8.1h-111.4z" fill="#fff"/><path d="m1220.9 1431.3h76.4" style="opacity:.43;fill:none;stroke:#c9c9c9;stroke-width:3;stroke-linecap:round;stroke-miterlimit:10"/><path d="m1297.4 1423.2h-76.3s-.9-2.4-5.2-4.9h86.2c-3.4 2.1-4.7 4.9-4.7 4.9z" fill="#fff"/><path d="m1203.9 1410.1h111.4v8.1h-111.4z" fill="#fff"/><path d="m1220.9 1418.3h76.4" style="opacity:.43;fill:none;stroke:#c9c9c9;stroke-width:3;stroke-linecap:round;stroke-miterlimit:10"/><path d="m1297.4 1410.1h-76.3s-.9-2.4-5.2-4.9h86.2c-3.4 2.2-4.7 4.9-4.7 4.9z" fill="#fff"/><path d="m1203.9 1397.1h111.4v8.1h-111.4z" fill="#fff"/><path d="m1220.9 1405.3h76.4" style="opacity:.43;fill:none;stroke:#c9c9c9;stroke-width:3;stroke-linecap:round;stroke-miterlimit:10"/><path d="m1297.4 1397.1h-76.3s-.9-2.4-5.2-4.9h86.2c-3.4 2.2-4.7 4.9-4.7 4.9z" fill="#fff"/><path d="m1203.9 1384.1h111.4v8.1h-111.4z" fill="#fff"/><path d="m1220.9 1392.2h76.4" style="opacity:.43;fill:none;stroke:#c9c9c9;stroke-width:3;stroke-linecap:round;stroke-miterlimit:10"/><path d="m1145.8 1462.2h-76.3s-.9-2.4-5.2-4.9h86.2c-3.5 2.1-4.7 4.9-4.7 4.9z" fill="#fff"/><path d="m1052.3 1449.2h111.4v8.1h-111.4z" fill="#fff"/><path d="m1069.2 1457.3h76.5" style="opacity:.43;fill:none;stroke:#c9c9c9;stroke-width:3;stroke-linecap:round;stroke-miterlimit:10"/><path d="m1145.8 1449.2h-76.3s-.9-2.4-5.2-4.9h86.2c-3.5 2.1-4.7 4.9-4.7 4.9z" fill="#fff"/><path d="m1052.3 1436.2h111.4v8.1h-111.4z" fill="#fff"/><path d="m1069.2 1444.3h76.5" style="opacity:.43;fill:none;stroke:#c9c9c9;stroke-width:3;stroke-linecap:round;stroke-miterlimit:10"/><path d="m1145.8 1436.2h-76.3s-.9-2.4-5.2-4.9h86.2c-3.5 2.1-4.7 4.9-4.7 4.9z" fill="#fff"/><path d="m1052.3 1423.2h111.4v8.1h-111.4z" fill="#fff"/><path d="m1069.2 1431.3h76.5" style="opacity:.43;fill:none;stroke:#c9c9c9;stroke-width:3;stroke-linecap:round;stroke-miterlimit:10"/><path d="m1145.8 1423.2h-76.3s-.9-2.4-5.2-4.9h86.2c-3.5 2.1-4.7 4.9-4.7 4.9z" fill="#fff"/><path d="m1052.3 1410.1h111.4v8.1h-111.4z" fill="#fff"/><path d="m1069.2 1418.3h76.5" style="opacity:.43;fill:none;stroke:#c9c9c9;stroke-width:3;stroke-linecap:round;stroke-miterlimit:10"/><path d="m1145.8 1410.1h-76.3s-.9-2.4-5.2-4.9h86.2c-3.5 2.2-4.7 4.9-4.7 4.9z" fill="#fff"/><path d="m1052.3 1397.1h111.4v8.1h-111.4z" fill="#fff"/><path d="m1069.2 1405.3h76.5" style="opacity:.43;fill:none;stroke:#c9c9c9;stroke-width:3;stroke-linecap:round;stroke-miterlimit:10"/><path d="m1145.8 1397.1h-76.3s-.9-2.4-5.2-4.9h86.2c-3.5 2.2-4.7 4.9-4.7 4.9z" fill="#fff"/><path d="m1052.3 1384.1h111.4v8.1h-111.4z" fill="#fff"/><path d="m1069.2 1392.2h76.5" style="opacity:.43;fill:none;stroke:#c9c9c9;stroke-width:3;stroke-linecap:round;stroke-miterlimit:10"/><path d="m1145.8 1384.1h-76.3s-.9-2.4-5.2-4.9h86.2c-3.5 2.1-4.7 4.9-4.7 4.9z" fill="#fff"/><path d="m1052.3 1371.1h111.4v8.1h-111.4z" fill="#fff"/><path d="m1069.2 1379.2h76.5" style="opacity:.43;fill:none;stroke:#c9c9c9;stroke-width:3;stroke-linecap:round;stroke-miterlimit:10"/><path d="m1238.4 1235.5c-2.1 10.7 5 21.1 15.7 23.1 1.1.2 2.1.3 3.1.3 1.2 5 3.3 9.5 6.7 12.9l24.2 4.4c16.1-7.3 21.4-35 23.7-46.8l-50.2-9.7-2.6-.3c-9.8-.5-18.8 6.2-20.6 16.1zm19.2-8.9c-1.2 7.2-2.3 16.4-1.6 25-.2 0-.4-.1-.7-.1-6.8-1.3-11.3-7.9-10-14.7 1.3-6 6.5-10.1 12.3-10.2z" fill="#fff"/><path d="m1236 1286c0 10.9 8.9 19.8 19.8 19.8 1.1 0 2.1-.1 3.2-.3 2.1 4.7 5 8.5 8.9 11.2h24.6c14.4-10.2 14.4-38.4 14.4-50.5h-51.1s0 0 0 0l-2.6.2c-9.8 1.3-17.2 9.6-17.2 19.6zm17.2-12.3c.2 7.3.8 16.5 3.2 24.9-.2 0-.4 0-.7 0-6.9 0-12.6-5.6-12.6-12.6 0-6 4.4-11.1 10.1-12.3z" fill="#fff"/><path d="m1157.8 1286c0 10.9 8.9 19.8 19.8 19.8 1.1 0 2.1-.1 3.2-.3 2.1 4.7 5 8.5 8.9 11.2h24.6c14.4-10.2 14.4-38.4 14.4-50.5h-51.1s0 0 0 0l-2.6.2c-9.7 1.3-17.2 9.6-17.2 19.6zm17.3-12.3c.2 7.3.8 16.5 3.2 24.9-.2 0-.4 0-.7 0-6.9 0-12.6-5.6-12.6-12.6 0-6 4.3-11.1 10.1-12.3z" fill="#fff"/><path d="m1263.4 1266.5-2.6-.2h-51.1c0 12 0 40.3 14.4 50.5h24.7c4-2.7 6.7-6.5 8.9-11.2 1 .2 2.1.3 3.2.3 10.9 0 19.8-8.9 19.8-19.8-.1-10.1-7.6-18.4-17.3-19.6zm10 19.5c0 6.9-5.6 12.6-12.6 12.6-.2 0-.4 0-.7 0 2.3-8.4 3-17.6 3.2-24.9 5.8 1.2 10.1 6.3 10.1 12.3z" fill="#fff" opacity=".5"/><path d="m1121.5 1225.1 3.3 25.4" style="opacity:.5;fill:none;stroke:#c9c9c9;stroke-width:3;stroke-linecap:round;stroke-miterlimit:10"/><path d="m1142.2 1225.1-3.4 25.4" style="opacity:.5;fill:none;stroke:#c9c9c9;stroke-width:3;stroke-linecap:round;stroke-miterlimit:10"/><path d="m1131.6 1225v25.7" style="opacity:.5;fill:none;stroke:#c9c9c9;stroke-width:3;stroke-linecap:round;stroke-miterlimit:10"/><g opacity=".5"><path d="m1066.4 1316.8h-29.8l-3.8-33.5-1.6-3.5-3.1-21.1h47.5l-3.4 21.1-1.4 3.5z" fill="#fff"/><g fill="none" stroke="#c9c9c9" stroke-linecap="round" stroke-miterlimit="10" stroke-width="3"><path d="m1042.2 1286.2 3.3 25.5" opacity=".5"/><path d="m1062.9 1286.2-3.3 25.5" opacity=".5"/><path d="m1052.4 1286.1v25.7" opacity=".5"/></g></g><path d="m1145.7 1280.7h-29.9l-3.7-33.5-1.7-3.5-3-21.1h47.4l-3.3 21.1-1.4 3.5z" fill="#fff"/><path d="m1121.5 1250.1 3.3 25.5" style="opacity:.5;fill:none;stroke:#c9c9c9;stroke-width:3;stroke-linecap:round;stroke-miterlimit:10"/><path d="m1142.2 1250.1-3.4 25.5" style="opacity:.5;fill:none;stroke:#c9c9c9;stroke-width:3;stroke-linecap:round;stroke-miterlimit:10"/><path d="m1131.6 1250v25.7" style="opacity:.5;fill:none;stroke:#c9c9c9;stroke-width:3;stroke-linecap:round;stroke-miterlimit:10"/><path d="m1145.7 1316.8h-29.9l-3.7-33.5-1.7-3.5-3-21.1h47.4l-3.3 21.1-1.4 3.5z" fill="#fff"/><path d="m1121.5 1286.2 3.3 25.5" style="opacity:.5;fill:none;stroke:#c9c9c9;stroke-width:3;stroke-linecap:round;stroke-miterlimit:10"/><path d="m1142.2 1286.2-3.4 25.5" style="opacity:.5;fill:none;stroke:#c9c9c9;stroke-width:3;stroke-linecap:round;stroke-miterlimit:10"/><path d="m1147.9 1260.3h-34.4" style="opacity:.5;fill:none;stroke:#c9c9c9;stroke-width:3;stroke-linecap:round;stroke-miterlimit:10"/><path d="m1131.6 1286.1v25.7" style="opacity:.5;fill:none;stroke:#c9c9c9;stroke-width:3;stroke-linecap:round;stroke-miterlimit:10"/><path d="m1087.6 1280.7h-29.8l-3.8-33.5-1.6-3.5-3.1-21.1h47.5l-3.3 21.1-1.5 3.5z" fill="#fff"/><path d="m1063.4 1250.1 3.4 25.5" style="opacity:.5;fill:none;stroke:#c9c9c9;stroke-width:3;stroke-linecap:round;stroke-miterlimit:10"/><path d="m1084.1 1250.1-3.3 25.5" style="opacity:.5;fill:none;stroke:#c9c9c9;stroke-width:3;stroke-linecap:round;stroke-miterlimit:10"/><path d="m1073.6 1250v25.7" style="opacity:.5;fill:none;stroke:#c9c9c9;stroke-width:3;stroke-linecap:round;stroke-miterlimit:10"/><path d="m1087.6 1316.8h-29.8l-3.8-33.5-1.6-3.5-3.1-21.1h47.5l-3.3 21.1-1.5 3.5z" fill="#fff"/><path d="m1063.4 1286.2 3.4 25.5" style="opacity:.5;fill:none;stroke:#c9c9c9;stroke-width:3;stroke-linecap:round;stroke-miterlimit:10"/><path d="m1084.1 1286.2-3.3 25.5" style="opacity:.5;fill:none;stroke:#c9c9c9;stroke-width:3;stroke-linecap:round;stroke-miterlimit:10"/><path d="m1089.9 1260.3h-34.4" style="opacity:.5;fill:none;stroke:#c9c9c9;stroke-width:3;stroke-linecap:round;stroke-miterlimit:10"/><path d="m1073.6 1286.1v25.7" style="opacity:.5;fill:none;stroke:#c9c9c9;stroke-width:3;stroke-linecap:round;stroke-miterlimit:10"/></svg>